
<?xml version="1.0" encoding="utf-8" ?>
<svg xmlns="http://www.w3.org/2000/svg" xmlns:xlink="http://www.w3.org/1999/xlink" width="1024" height="1024">
	<defs>
		<linearGradient id="gradient_0" gradientUnits="userSpaceOnUse" x1="247.02327" y1="915.05524" x2="244.09668" y2="918.67749">
			<stop offset="0" stop-color="#839981" stop-opacity="0.7019608"/>
			<stop offset="1" stop-color="#809684" stop-opacity="0.75294119"/>
		</linearGradient>
	</defs>
	<path fill="url(#gradient_0)" d="M223.028 903.866L224.205 902.842C232.109 904.281 252.493 919.073 260.249 923.787L259.315 924.841C259.55 925.751 259.738 926.074 260.258 926.822L259.441 927.841C247.324 919.89 234.549 912.683 223.028 903.866Z"/>
	<path fill="#879B86" d="M223.028 903.866C204.263 889.764 186.488 873.646 169.854 857.131C151.69 839.098 134.403 820.38 119.058 799.859Q114.752 793.986 110.625 787.985Q106.498 781.985 102.554 775.863Q98.6106 769.741 94.8532 763.502Q91.0958 757.264 87.5283 750.915Q83.9608 744.566 80.5865 738.112Q77.2122 731.659 74.0342 725.106Q70.8561 718.554 67.8772 711.908Q64.8983 705.263 62.1212 698.531Q59.3441 691.798 56.7714 684.985Q54.1987 678.172 51.8328 671.285Q49.4668 664.397 47.3097 657.442Q45.1526 650.486 43.2063 643.468Q41.2601 636.451 39.5264 629.377Q37.7927 622.304 36.2733 615.182Q34.7538 608.06 33.4499 600.895Q32.146 593.73 31.0589 586.529C28.2677 567.002 27.1839 547.453 26.4959 527.765C23.1038 430.689 43.5105 341.567 93.6735 258.091C101.52 245.033 109.306 232.093 118.476 219.899Q122.116 215.042 125.874 210.275Q129.633 205.509 133.507 200.836Q137.381 196.163 141.368 191.587Q145.355 187.01 149.453 182.533Q153.552 178.056 157.759 173.68Q161.965 169.304 166.278 165.033Q170.591 160.762 175.007 156.598Q179.424 152.434 183.941 148.379Q188.458 144.325 193.073 140.382Q197.688 136.44 202.398 132.611Q207.108 128.783 211.911 125.071Q216.714 121.36 221.606 117.767Q226.498 114.174 231.477 110.702Q236.456 107.23 241.519 103.881Q246.581 100.533 251.724 97.3091Q256.867 94.0855 262.088 90.9889Q267.308 87.8923 272.603 84.9247Q277.898 81.957 283.264 79.12Q288.63 76.2831 294.064 73.5785Q299.498 70.8739 304.997 68.3034Q310.496 65.7328 316.056 63.2978Q321.616 60.8628 327.234 58.5649Q332.852 56.2669 338.524 54.1074Q344.197 51.9478 349.921 49.928Q355.645 47.9082 361.417 46.0293Q367.188 44.1504 373.004 42.4135Q378.82 40.6767 384.677 39.083Q390.534 37.4892 396.428 36.0395Q402.323 34.5898 408.25 33.2851Q414.178 31.9803 420.137 30.8213Q426.095 29.6622 432.079 28.6496Q438.064 27.6369 444.072 26.7713Q449.962 25.8987 455.873 25.1721Q461.783 24.4455 467.71 23.8654Q473.636 23.2853 479.575 22.852Q485.514 22.4187 491.462 22.1325Q497.41 21.8463 503.363 21.7074Q509.316 21.5685 515.271 21.5769Q521.226 21.5854 527.179 21.7411Q533.131 21.8969 539.078 22.2Q545.026 22.503 550.963 22.9531Q556.901 23.4032 562.826 24.0001Q568.751 24.597 574.659 25.3403Q580.567 26.0837 586.455 26.973Q592.343 27.8623 598.207 28.897Q604.072 29.9317 609.909 31.1112Q615.745 32.2907 621.551 33.6143Q627.357 34.9379 633.128 36.4048Q638.9 37.8716 644.633 39.4808Q650.366 41.09 656.058 42.8406Q661.749 44.5912 667.396 46.4821Q673.043 48.373 678.641 50.403Q684.239 52.4331 689.785 54.601Q695.331 56.769 700.822 59.0735Q706.313 61.378 711.745 63.8177Q717.177 66.2574 722.547 68.8307Q727.917 71.4041 733.222 74.1095Q738.526 76.815 743.763 79.6509Q748.999 82.4867 754.163 85.4513Q759.328 88.4159 764.417 91.5074Q769.506 94.5989 774.518 97.8153Q779.529 101.032 784.46 104.371Q789.39 107.711 794.236 111.171Q799.082 114.632 803.841 118.211C826.304 135.145 847.962 153.039 867.506 173.336C932.076 240.395 980.782 334.535 993.57 427.035Q996.034 443.664 997.475 460.413Q998.915 477.162 999.327 493.967Q999.738 510.773 999.119 527.572Q998.5 544.371 996.852 561.101C989.465 630.838 960.829 712.636 924.154 772.178C916.175 785.133 906.958 797.326 897.767 809.435C889.418 820.435 880.275 830.62 871.548 841.291C859.599 855.902 850.221 868.867 836.155 882.083C823.484 893.989 809.038 904.391 794.751 914.255C776.12 927.119 756.998 939.371 736.741 949.555C728.526 953.684 719.777 957.055 711.258 960.525C671.233 976.826 625.494 990.132 582.636 996.01C570.683 997.649 558.665 998.397 546.63 999.134C493.547 1002.38 440.596 998.743 389.075 984.922C379.193 982.271 368.935 979.538 359.438 975.72C355.453 974.943 351.161 972.94 347.328 971.532C326.594 963.91 307.196 954.684 287.622 944.495C278.171 939.576 267.83 934.455 259.441 927.841L260.258 926.822C259.738 926.074 259.55 925.751 259.315 924.841L260.249 923.787C252.493 919.073 232.109 904.281 224.205 902.842L223.028 903.866ZM260.249 923.787L259.315 924.841C259.55 925.751 259.738 926.074 260.258 926.822L259.441 927.841C267.83 934.455 278.171 939.576 287.622 944.495C307.196 954.684 326.594 963.91 347.328 971.532C351.161 972.94 355.453 974.943 359.438 975.72C361.968 975.189 364.832 976.245 367.313 976.825C365.827 975.085 364.09 973.038 362.052 971.943C358.76 970.173 354.797 968.957 351.312 967.566C343.31 964.372 335.266 961.264 327.381 957.788C304.596 947.743 281.939 936.04 260.249 923.787Z"/>
	<defs>
		<linearGradient id="gradient_1" gradientUnits="userSpaceOnUse" x1="309.1799" y1="955.81189" x2="314.86533" y2="945.85944">
			<stop offset="0" stop-color="#819583" stop-opacity="0.64705884"/>
			<stop offset="1" stop-color="#839A82" stop-opacity="0.80000001"/>
		</linearGradient>
	</defs>
	<path fill="url(#gradient_1)" d="M260.249 923.787C281.939 936.04 304.596 947.743 327.381 957.788C335.266 961.264 343.31 964.372 351.312 967.566C354.797 968.957 358.76 970.173 362.052 971.943C364.09 973.038 365.827 975.085 367.313 976.825C364.832 976.245 361.968 975.189 359.438 975.72C355.453 974.943 351.161 972.94 347.328 971.532C326.594 963.91 307.196 954.684 287.622 944.495C278.171 939.576 267.83 934.455 259.441 927.841L260.258 926.822C259.738 926.074 259.55 925.751 259.315 924.841L260.249 923.787Z"/>
	<path fill="#B9B99E" d="M528.495 65.745C542.883 65.6565 557.998 67.6377 572.252 69.5173Q576.687 70.1272 581.108 70.8257Q585.529 71.5242 589.936 72.311Q594.343 73.0979 598.733 73.9728Q603.123 74.8477 607.494 75.8104Q611.866 76.773 616.217 77.8229Q620.568 78.8728 624.898 80.0096Q629.227 81.1465 633.533 82.3697Q637.839 83.593 642.12 84.9022Q646.4 86.2114 650.654 87.606Q654.907 89.0006 659.132 90.4801Q663.357 91.9596 667.551 93.5233Q671.745 95.0871 675.908 96.7345Q680.07 98.3819 684.198 100.112Q688.326 101.843 692.419 103.655Q696.512 105.468 700.568 107.362Q704.623 109.256 708.64 111.231Q712.657 113.206 716.634 115.261Q720.611 117.317 724.546 119.451Q728.48 121.585 732.371 123.798Q736.263 126.01 740.109 128.3Q743.955 130.59 747.755 132.957Q751.554 135.323 755.305 137.765Q759.057 140.207 762.759 142.724Q766.46 145.241 770.111 147.831Q773.762 150.422 777.36 153.084Q780.958 155.747 784.502 158.482Q788.046 161.216 791.535 164.021Q795.023 166.826 798.455 169.7Q801.887 172.574 805.26 175.516Q808.634 178.458 811.948 181.467Q815.262 184.476 818.515 187.551Q821.768 190.626 824.959 193.765Q828.848 197.685 832.639 201.699Q836.431 205.713 840.123 209.818Q843.815 213.923 847.406 218.118Q850.997 222.313 854.484 226.594Q857.971 230.875 861.352 235.24Q864.733 239.605 868.007 244.052Q871.28 248.499 874.444 253.024Q877.607 257.55 880.659 262.151Q883.711 266.753 886.649 271.427Q889.588 276.102 892.411 280.847Q895.234 285.593 897.94 290.406Q900.646 295.219 903.234 300.096Q905.821 304.974 908.288 309.914Q910.756 314.853 913.102 319.852Q915.447 324.85 917.67 329.905Q919.893 334.959 921.991 340.066Q924.09 345.174 926.063 350.331Q928.035 355.488 929.881 360.692Q931.727 365.896 933.445 371.143Q935.164 376.39 936.753 381.678Q938.342 386.966 939.801 392.292Q941.261 397.617 942.589 402.976Q943.918 408.335 945.115 413.726Q946.312 419.116 947.377 424.534Q948.441 429.952 949.373 435.394Q950.305 440.836 951.104 446.3Q951.902 451.764 952.566 457.245Q953.231 462.726 953.761 468.223Q954.291 473.719 954.687 479.226Q955.082 484.733 955.343 490.249Q955.603 495.764 955.729 501.284Q955.854 506.804 955.845 512.326C956.329 626.239 911.053 741.807 830.52 822.778C768.896 884.737 695.491 927.544 609.693 945.623C592.744 949.194 575.337 951.899 558.187 954.292C550.064 955.425 541.486 955.856 533.483 957.522C528.884 957.095 523.293 958.665 518.536 958.877L518.816 959.145L516.823 959.046C519.764 954.37 525.055 949.603 528.804 945.431C539.075 934 549.561 922.718 559.583 911.068L559.1 910.382C562.756 905.384 567.661 900.777 571.856 896.214Q585.925 880.86 600.268 865.762C604.497 861.279 609.375 856.77 613 851.826Q726.605 736.09 834.23 614.774L900.491 540.767C908.822 531.364 917.362 522.141 925.498 512.567C922.691 510.702 905.963 489.934 902.103 485.481Q871.313 449.25 839.205 414.183C831.053 405.473 823.362 396.292 815.548 387.278C793.315 361.628 771.681 335.323 748.889 310.174C738.464 298.671 727.495 287.667 716.923 276.3C699.153 257.193 681.931 237.591 664.385 218.283C645.31 197.292 625.754 176.421 607.521 154.693C604.491 150.52 599.991 146.569 596.471 142.734C590.989 136.761 585.804 130.506 580.228 124.624C579.7 122.335 570.103 112.919 567.767 110.068C562.315 104.415 557.2 98.3792 551.927 92.5534C547.17 87.2974 542.098 82.1378 537.684 76.5946L538.387 76.1668C535.397 72.5288 531.831 69.0822 528.495 65.745Z"/>
	<path fill="#F6C7A1" d="M672.405 804.982C674.091 801.887 678.756 798.537 681.393 796.071Q696.778 781.647 712.663 767.776C717.848 763.174 726.419 756.394 730.544 751.072C733.674 747.033 733.046 740.933 735.685 736.251C736.239 735.986 736.39 735.94 736.865 735.629C738.336 734.668 746.552 724.672 747.419 722.94C748.179 721.42 748.287 719.102 748.628 717.425C749.861 711.366 755.631 710.692 759.691 707.244C761.09 706.055 761.582 703.734 763.222 702.85C763.936 702.465 765.714 703.167 766.519 703.359C768.333 702.802 769.998 699.982 771.638 698.728C775.755 698.331 779.246 697.658 782.449 694.883C782.92 694.475 783.375 694.046 783.867 693.664C784.969 692.809 785.933 692.3 787.354 692.422L787.963 694.06L787.155 695.807Q754.328 729.854 719.968 762.352C704.657 776.747 688.76 790.522 673.478 804.982L672.405 804.982Z"/>
	<path fill="#E3D3B4" d="M787.155 695.807C789.587 693.707 794.389 690.522 795.735 687.694C795.521 686.328 794.601 683.713 795.345 682.571C796.253 681.177 798.235 679.708 799.577 678.723C805.66 674.257 808.661 667.803 813.671 662.422C816.495 659.39 820.239 655.784 823.662 653.437C825.708 652.034 828.128 650.971 830.084 649.482C832.007 648.019 832.547 645.253 834.738 644.209C834.895 644.264 835.049 644.325 835.207 644.376C835.996 644.629 835.715 644.544 836.697 644.58C837.934 643.584 838.847 642.428 840.541 642.439C841.257 642.444 842.16 642.774 842.857 642.964C843.316 642.526 843.643 642.105 844.054 641.626C844.836 640.714 845.688 640.378 846.883 640.353C847.513 640.341 848.137 640.4 848.766 640.416C849.245 640.429 849.725 640.424 850.204 640.426L849.534 639.239C849.979 637.842 850.586 637.986 851.262 636.932C851.827 636.049 852.223 633.809 852.551 632.742C852.327 635.931 852.011 638.722 851.215 641.818C851.037 642.512 850.898 643.225 850.727 643.922L851.538 644.192L850.946 644.382C851.121 644.307 851.302 644.244 851.471 644.155C854.586 642.51 863.046 629.31 866.338 625.67C866.602 629.925 853.256 642.804 850.665 647.126C848.402 650.902 847.111 655.366 845.479 659.448C843.66 663.998 841.568 668.463 839.49 672.899C835.306 681.827 831.269 691.184 826.369 699.728C821.05 709.001 814.719 717.613 808.582 726.345C804.313 732.418 800.087 738.782 795.194 744.37C794.348 745.335 793.568 746.245 792.427 746.876C795.107 742.486 798.535 738.471 801.618 734.356C805.224 729.544 808.462 724.557 811.918 719.663C814.605 715.859 817.629 712.149 820.085 708.2L819.688 707.801C819.487 707.879 819.289 707.967 819.084 708.034C818.069 708.366 817.247 708.351 816.192 708.367C815.457 709.259 815.497 710.861 814.957 711.471C813.611 712.995 810.963 713.208 809.637 714.929C808.487 716.425 807.356 720.771 805.861 721.567C804.024 722.546 801.223 721.861 799.287 723.245C796.911 724.942 794.758 728.47 792.083 729.44C791.47 729.26 791.009 728.927 790.404 729.255C787.058 731.068 784.347 740.344 781.417 740.896C775.741 741.964 770.75 752.937 765.193 756.516C764.933 756.683 764.453 757.085 764.192 757.298C761.15 757.15 758.308 761.031 755.941 762.727C751.342 766.02 742.341 769.016 738.619 772.57C736.151 774.927 734.456 778.924 731.664 780.828C728.984 782.656 725.583 782.133 722.644 784.304C719.85 786.367 716.2 787.233 713.345 789.242C709.316 792.079 705.905 796.458 701.315 798.439C696.372 800.572 690.786 801.546 685.953 803.871C680.602 806.444 682.819 810.446 675.018 809.239C672.34 808.824 671.614 807.867 668.985 809.559C661.478 814.39 654.496 825.272 647.229 829.314L646.787 829.042C652.196 823.512 666.692 808.145 672.405 804.982L673.478 804.982C688.76 790.522 704.657 776.747 719.968 762.352Q754.328 729.854 787.155 695.807Z"/>
	<defs>
		<linearGradient id="gradient_2" gradientUnits="userSpaceOnUse" x1="722.34406" y1="326.4158" x2="807.19812" y2="231.80609">
			<stop offset="0" stop-color="#B5C1A6"/>
			<stop offset="1" stop-color="#D9CCB2"/>
		</linearGradient>
	</defs>
	<path fill="url(#gradient_2)" d="M567.767 110.068L568.087 109.303L567.349 108.247C583.847 108.948 604.528 114.318 620.452 118.956Q623.915 119.975 627.361 121.054Q630.807 122.132 634.233 123.269Q637.66 124.405 641.067 125.6Q644.474 126.795 647.86 128.047Q651.246 129.299 654.611 130.609Q657.975 131.919 661.317 133.286Q664.658 134.652 667.976 136.076Q671.294 137.499 674.587 138.979Q677.88 140.458 681.148 141.994Q684.416 143.529 687.657 145.12Q690.898 146.71 694.111 148.356Q697.325 150.001 700.51 151.701Q703.695 153.401 706.851 155.155Q710.007 156.908 713.132 158.715Q716.258 160.522 719.352 162.382Q722.446 164.242 725.509 166.155Q728.571 168.067 731.6 170.031Q734.63 171.995 737.625 174.01Q740.621 176.026 743.581 178.092Q746.542 180.157 749.468 182.273Q752.393 184.389 755.282 186.555Q758.171 188.72 761.022 190.934Q763.874 193.148 766.688 195.41Q769.501 197.673 772.276 199.982Q775.051 202.292 777.786 204.649Q780.521 207.005 783.216 209.408Q785.911 211.811 788.564 214.259Q791.218 216.707 793.829 219.2Q796.441 221.693 799.01 224.23Q801.578 226.767 804.104 229.347Q806.629 231.927 809.11 234.55Q811.591 237.172 814.027 239.837C846.26 274.933 869.339 313.95 887.342 357.884C893.107 371.952 898.417 385.916 902.551 400.563C907.393 417.717 910.711 435.702 913.807 453.255C915.381 462.179 917.163 471.405 917.941 480.429C918.572 487.754 918.039 495.765 919.382 502.945C920.158 507.09 924.613 508.651 925.498 512.567C922.691 510.702 905.963 489.934 902.103 485.481Q871.313 449.25 839.205 414.183C831.053 405.473 823.362 396.292 815.548 387.278C793.315 361.628 771.681 335.323 748.889 310.174C738.464 298.671 727.495 287.667 716.923 276.3C699.153 257.193 681.931 237.591 664.385 218.283C645.31 197.292 625.754 176.421 607.521 154.693C604.491 150.52 599.991 146.569 596.471 142.734C590.989 136.761 585.804 130.506 580.228 124.624C579.7 122.335 570.103 112.919 567.767 110.068Z"/>
	<path fill="#E3D3B4" d="M607.521 154.693C630.506 158.866 652.463 169.042 673.006 179.888C731.105 210.564 774.916 246.81 812.507 301.132C830.478 327.1 845.776 355.09 856.058 384.981C859.538 395.097 862.09 405.431 865.165 415.664C867.286 422.724 872.725 440.029 871.402 446.715C871.272 447.369 871.221 447.418 870.982 447.939C867.926 445.556 865.763 442.146 863.212 439.251C860.132 435.757 841.852 414.975 839.205 414.183C831.053 405.473 823.362 396.292 815.548 387.278C793.315 361.628 771.681 335.323 748.889 310.174C738.464 298.671 727.495 287.667 716.923 276.3C699.153 257.193 681.931 237.591 664.385 218.283C645.31 197.292 625.754 176.421 607.521 154.693Z"/>
	<path fill="#F0EEDA" d="M512.24 48.9236C520.671 58.0775 529.732 67.0419 537.684 76.5946C542.098 82.1378 547.17 87.2974 551.927 92.5534C557.2 98.3792 562.315 104.415 567.767 110.068C570.103 112.919 579.7 122.335 580.228 124.624C585.804 130.506 590.989 136.761 596.471 142.734C599.991 146.569 604.491 150.52 607.521 154.693C625.754 176.421 645.31 197.292 664.385 218.283C681.931 237.591 699.153 257.193 716.923 276.3C727.495 287.667 738.464 298.671 748.889 310.174C771.681 335.323 793.315 361.628 815.548 387.278C823.362 396.292 831.053 405.473 839.205 414.183Q871.313 449.25 902.103 485.481C905.963 489.934 922.691 510.702 925.498 512.567C917.362 522.141 908.822 531.364 900.491 540.767L834.23 614.774Q726.605 736.09 613 851.826C609.375 856.77 604.497 861.279 600.268 865.762Q585.925 880.86 571.856 896.214C567.661 900.777 562.756 905.384 559.1 910.382L559.583 911.068C549.561 922.718 539.075 934 528.804 945.431C525.055 949.603 519.764 954.37 516.823 959.046L518.816 959.145L518.536 958.877C523.293 958.665 528.884 957.095 533.483 957.522C537.271 958.243 541.514 956.853 545.448 957.028C545.174 957.111 544.902 957.197 544.628 957.277C538.187 959.14 530.526 958.985 523.865 959.854C519.867 960.375 515.613 961.615 511.623 961.747C507.385 961.887 475.316 958.038 472.565 956.48C475.734 956.854 479.292 957.581 482.462 957.434C482.755 957.421 483.047 957.4 483.339 957.382C482.728 956.76 482.267 956.795 481.441 956.64C473.393 955.131 465.175 954.535 457.083 953.342Q432.757 949.791 408.794 944.298C346.569 930.028 280.268 894.874 230.932 854.725Q227.571 852.025 224.265 849.259Q220.958 846.494 217.707 843.663Q214.456 840.832 211.262 837.938Q208.068 835.043 204.932 832.085Q201.796 829.128 198.719 826.109Q195.642 823.09 192.625 820.01Q189.609 816.931 186.654 813.792Q183.699 810.654 180.807 807.457Q177.915 804.261 175.087 801.007Q172.259 797.754 169.496 794.445Q166.733 791.136 164.036 787.774Q161.339 784.411 158.709 780.995Q156.08 777.579 153.518 774.112Q150.957 770.645 148.465 767.128Q145.972 763.61 143.55 760.045Q141.128 756.479 138.777 752.865Q136.427 749.252 134.148 745.593Q131.869 741.934 129.663 738.23Q127.458 734.526 125.326 730.78Q123.194 727.033 121.137 723.245Q119.08 719.457 117.098 715.629Q115.116 711.801 113.211 707.934Q111.305 704.067 109.477 700.163Q107.649 696.26 105.898 692.32Q104.148 688.381 102.475 684.408Q100.803 680.435 99.2102 676.429Q97.6171 672.424 96.1038 668.387Q94.5904 664.351 93.1574 660.286Q91.7244 656.22 90.3723 652.127Q89.0202 648.034 87.7494 643.914Q86.4787 639.795 85.2899 635.652Q84.1011 631.508 82.9947 627.342C76.2429 601.58 72.3117 575.881 69.6121 549.442Q69.0844 544.047 68.6897 538.641Q68.2951 533.235 68.0338 527.821Q67.7725 522.407 67.6447 516.988Q67.5169 511.569 67.5227 506.149Q67.5285 500.729 67.6678 495.31Q67.8071 489.891 68.0799 484.478Q68.3528 479.064 68.7589 473.659Q69.165 468.254 69.7042 462.861Q70.2434 457.467 70.9154 452.089Q71.5873 446.71 72.3916 441.35Q73.1959 435.989 74.132 430.65Q75.0682 425.311 76.1356 419.997Q77.203 414.683 78.401 409.397Q79.599 404.11 80.927 398.855Q82.2549 393.6 83.7119 388.379Q85.169 383.158 86.7542 377.975Q88.3395 372.791 90.052 367.648Q91.7645 362.506 93.6032 357.407Q95.4418 352.308 97.4056 347.256Q99.3694 342.203 101.457 337.201Q103.545 332.199 105.755 327.25Q107.965 322.301 110.297 317.407Q112.629 312.514 115.08 307.68Q117.532 302.845 120.101 298.073Q122.671 293.3 125.358 288.593Q128.045 283.885 130.847 279.245Q133.648 274.605 136.564 270.035Q139.479 265.466 142.506 260.969Q145.533 256.473 148.67 252.053Q151.807 247.632 155.052 243.29Q158.297 238.949 161.648 234.688Q164.999 230.428 168.454 226.251C176.807 216.028 186.108 206.563 195.415 197.219Q198.331 194.299 201.3 191.432Q204.269 188.566 207.29 185.754Q210.312 182.943 213.384 180.187Q216.456 177.432 219.579 174.733Q222.701 172.034 225.873 169.394Q229.044 166.753 232.263 164.17Q235.483 161.588 238.749 159.066Q242.015 156.543 245.327 154.081Q248.639 151.618 251.996 149.217Q255.353 146.816 258.753 144.477Q262.153 142.138 265.595 139.862Q269.038 137.586 272.522 135.373Q276.005 133.161 279.529 131.012Q283.053 128.864 286.616 126.781Q290.178 124.697 293.778 122.68Q297.379 120.662 301.015 118.711Q304.652 116.76 308.324 114.876Q311.996 112.992 315.702 111.176Q319.408 109.36 323.146 107.612Q326.885 105.864 330.655 104.185Q334.425 102.506 338.225 100.897Q342.025 99.2872 345.854 97.7478Q349.684 96.2084 353.54 94.7395Q357.397 93.2706 361.28 91.8728Q365.163 90.4749 369.071 89.1486Q372.979 87.8223 376.911 86.568Q380.843 85.3136 384.797 84.1317Q388.751 82.9497 392.726 81.8406Q396.702 80.7314 400.696 79.6954Q404.691 78.6594 408.705 77.697Q412.718 76.7345 416.748 75.8458Q420.778 74.9572 424.824 74.1427Q446.322 69.6588 468.12 66.9917C476.537 66.0403 485.05 65.6498 493.492 64.8033L493.57 64.2658L493.965 64.7505L497.434 64.1883L497.291 64.5982C496.224 65.4978 495.328 66.3218 494.436 67.4068L494.87 68.1116C500.727 61.8198 506.19 54.9956 512.24 48.9236Z"/>
	<path fill="#E3D3B4" d="M503.131 113.874C503.636 114.585 503.869 115.019 503.96 115.922C504.335 119.646 498.611 119.37 495.968 122.235C495.83 122.384 495.698 122.537 495.563 122.688L494.932 123.211L494.673 122.779C497.115 119.55 500.27 116.737 503.131 113.874Z"/>
	<path fill="#358A77" d="M675.133 548.728C676.952 548.749 678.805 548.775 680.617 548.967C681.479 549.059 682.345 549.242 683.204 549.044C686.329 548.323 691.556 534.848 693.469 531.71L693.818 532.377C687.947 547.881 675.113 566.131 665.23 579.636C672.783 562.5 675.983 551.333 674.838 532.378L675.327 531.599C676.135 537.382 676.453 543.001 675.133 548.728Z"/>
	<path fill="#142E39" d="M600.814 740.943C600.99 744.226 596.674 749.076 594.811 751.67C594.986 751.846 595.177 752.007 595.334 752.2C595.406 752.288 596.057 753.33 596.089 753.378C597.123 754.964 598.475 756.215 600.451 756.52C601.637 756.702 602.233 756.064 603.147 755.443C600.306 760.736 591.957 766.541 587.302 770.419L586.561 770.252L587.286 771.483L586.943 770.711L583.46 773.031L582.342 771.959L583.035 773.542L582.632 773.685C584.184 773.761 586.71 770.474 588.069 771.792C581.742 776.335 574.556 780.156 567.889 784.22C580.212 771.02 590.704 755.856 600.814 740.943Z"/>
	<path fill="#D48B7B" d="M655.822 508.085C662.93 527.254 666.161 550.359 660.755 570.404C658.986 566.776 658.551 558.457 657.655 554.168C656.45 548.398 654.752 542.863 652.832 537.302C653.661 537.861 653.699 538.318 654.108 539.207C655.044 537.665 655.368 531.874 655.081 529.952C654.396 525.366 653.758 511.894 655.822 508.085Z"/>
	<path fill="#5EBA97" d="M149 454.25C148.945 452.34 148.897 450.629 149.319 448.757C150.017 450.488 149.751 452.716 149.74 454.565C137.928 466.238 127.339 479.505 116.399 491.991C111.014 498.137 104.725 503.854 99.7388 510.287C109.451 522.932 118.999 535.798 129.38 547.907C136.842 556.609 144.958 564.674 152.488 573.28C148.309 572.804 137.138 556.521 132.518 553.108C132.056 553.301 131.303 553.636 130.835 553.744C129.405 554.074 128.985 553.807 127.839 552.997C124.691 550.771 116.641 544.886 116.04 541.195C115.742 539.363 114.253 537.192 113.486 535.44C110.736 533.94 110.135 530.187 107.342 528.774C105.782 534.031 109.712 553.771 109.748 561.209C109.749 561.353 109.746 561.497 109.746 561.641C109.348 563.805 109.995 566.334 110.341 568.485L109.923 568.918C109.062 568.316 108.914 568.319 108.839 567.284C108.742 565.945 108.989 564.541 108.9 563.174C108.452 556.325 107.416 549.344 106.75 542.495C106.471 539.62 105.755 536.766 105.647 533.887C105.481 529.503 106.558 523.713 105.318 519.54C104.594 517.101 101.834 514.962 100.325 512.918C99.2588 511.474 98.7139 510.204 99.8306 508.561C101.439 506.194 104.925 504.27 106.021 501.706C106.946 499.539 105.912 491.367 105.989 488.491C106.111 483.91 106.798 479.272 107.431 474.734C107.524 476.896 107.688 478.971 108.051 481.106Q107.121 490.697 107.245 500.332C113.261 494.981 118.387 488.45 123.647 482.375C131.899 472.844 140.175 463.261 149 454.25Z"/>
	<path fill="#E3D3B4" d="M508.054 792.939C508.088 793.076 508.125 793.213 508.157 793.351C509.586 799.591 507.241 821.539 509.01 824.624C509.19 824.938 510.116 825.601 510.454 825.788C511.624 826.434 512.98 826.882 514.281 827.152L514.152 826.915C514.115 822.657 514.205 798.221 515.422 796.726C515.934 802.38 514.953 808.195 515.588 813.791C515.627 813.958 515.669 814.124 515.706 814.291C516.183 816.452 516.183 818.373 516.13 820.567C517.573 822.101 520.821 822.487 522.863 823.263C523.416 822.634 523.784 822.132 524.213 821.43L524.69 821.645L524.612 822.617C524.56 822.879 524.517 823.142 524.457 823.402C523.763 826.391 517.257 830.715 519.43 834.013C519.991 834.865 520.579 835.091 521.461 835.526C522.903 835.526 523.671 835.46 524.765 834.42C527.141 832.163 528.243 829.506 531.366 828.005C526.07 834.508 520.511 840.782 515.477 847.496L514.884 847.618C511.476 848.289 510.547 847.926 507.65 846.015C496.228 833.707 484.971 820.847 474.099 808.049C474.391 808.203 474.688 808.346 474.975 808.509C480.292 811.534 491.743 828.435 494.791 829.457C496.122 829.903 499.103 829.011 500.51 828.691C501.549 828.454 501.762 828.594 502.456 827.71C501.092 822.989 495.812 820.081 494.046 815.467L495.716 816.682C496.994 816.76 497.435 818.095 498.676 817.993C501.109 817.795 504.235 815.789 506.566 816.431C506.834 816.505 507.096 816.602 507.361 816.687L507.891 813.807C508.456 806.968 507.818 799.838 508.054 792.939Z"/>
	<path fill="#DCAE6E" d="M515.588 813.791C515.627 813.958 515.669 814.124 515.706 814.291C516.183 816.452 516.183 818.373 516.13 820.567C517.573 822.101 520.821 822.487 522.863 823.263C523.416 822.634 523.784 822.132 524.213 821.43L524.69 821.645L524.612 822.617C521.068 825.971 518.21 830.428 515.281 834.328C515.242 827.489 515.474 820.629 515.588 813.791Z"/>
	<path fill="#DCAE6E" d="M495.716 816.682C496.994 816.76 497.435 818.095 498.676 817.993C501.109 817.795 504.235 815.789 506.566 816.431C506.834 816.505 507.096 816.602 507.361 816.687L507.891 813.807C507.963 820.18 507.873 826.612 508.222 832.974C504.602 827.194 499.975 822.001 495.716 816.682Z"/>
	<path fill="#358A77" d="M835.718 463.517Q846.223 474.916 856.293 486.7C863.682 495.432 870.818 504.458 878.657 512.794C872.749 518.824 867.353 525.336 861.842 531.725C859.619 534.301 856.956 538.159 854.29 540.142L853.716 540.083L853.394 539.622L855.003 538.262C855.453 537.081 855.879 536.65 856.689 535.7C856.243 530.402 856.646 525.283 856.432 520.024C856.173 513.652 854.345 506.617 852.337 500.593C850.175 494.105 847.32 487.64 844.335 481.495C841.768 476.209 836.459 469.264 835.718 463.517Z"/>
	<path fill="#DCAE6E" d="M385.999 779.208C380.926 775.113 374.156 767.023 369.169 762.024C359.163 751.992 349.02 742.057 339.238 731.808C335.795 728.2 331.709 724.632 328.787 720.607C331.364 721.569 334.155 725.78 336.466 727.58C342.835 732.54 349.732 737.433 356.465 741.902C368.585 749.946 383.788 759.02 396.646 765.937C404.65 770.243 412.973 774.03 420.87 778.522L421.009 779.206C422.292 779.782 423.566 780.327 424.761 781.075C422.706 782.542 420.168 782.406 417.859 783.269C412.288 785.352 397.53 784.89 391.684 783.871C389.841 782.263 388.456 779.786 385.999 779.208Z"/>
	<path fill="#F6C7A1" d="M595.464 781.49C620.48 767.309 645.875 753.287 668.628 735.557C675.761 729.999 682.426 723.528 688.675 717.004C691.27 714.294 693.756 710.966 696.522 708.505C697.077 708.012 697.694 707.748 698.363 707.452C696.317 710.867 693.776 714.381 692.256 718.041C689.632 721.943 681.736 728.652 678.066 732.553L642.012 771.412C638.725 774.946 633.276 781.98 629.803 784.512C628.11 784.726 627.297 786.009 625.743 786.497C621.996 787.673 613.032 787.552 609.052 787.083C607.652 786.918 606.249 786.822 604.844 786.711C601.78 784.349 597.945 783.504 595.464 781.49Z"/>
	<path fill="#E3D3B4" d="M512.24 48.9236C520.671 58.0775 529.732 67.0419 537.684 76.5946C542.098 82.1378 547.17 87.2974 551.927 92.5534C557.2 98.3792 562.315 104.415 567.767 110.068C570.103 112.919 579.7 122.335 580.228 124.624C574.434 122.302 548.884 87.4106 544.487 86.4557C541.453 85.7968 536.626 92.2741 534.168 93.726C531.452 95.3303 524.008 97.6359 521.018 96.7179C520.22 96.4728 519.939 95.5031 519.537 94.8247C518.285 95.1303 517.012 95.3794 515.764 95.6991C514.661 95.9815 513.612 96.283 512.459 96.219C510.513 96.1109 496.268 94.7138 495.033 94.2211C494.829 94.1396 494.679 93.9519 494.476 93.868C494.26 93.7791 494.003 93.8157 493.795 93.71C491.926 92.7575 488.406 89.1895 487.57 87.4279C487.188 86.623 487.101 86.4604 486.417 85.9236C486.182 85.7389 485.939 85.5634 485.7 85.3834L485.962 84.7778L484.829 84.2787C484.59 83.3174 484.389 82.6986 483.796 81.8996C483.039 83.492 446.635 124.022 444.965 125.027C444.689 125.193 444.403 125.342 444.122 125.499C447.526 120.404 452.843 115.544 456.939 110.903C469.495 96.6734 482.834 82.7657 494.87 68.1116C500.727 61.8198 506.19 54.9956 512.24 48.9236Z"/>
	<path fill="#5EBA97" d="M374.494 439.902C373.328 436.553 372.976 432.59 372.641 429.071C371.212 414.031 373.299 397.433 378.703 383.304C379.629 380.883 380.456 378.161 382.127 376.154C377.171 396.903 376.385 413.37 380.532 434.452C381.851 441.103 383.536 447.324 386.526 453.435L383.488 457.024C361.611 484.678 342.863 514.347 347.298 551.43C348.229 559.219 350.006 566.4 352.795 573.726C345.765 564.337 337.72 554.53 332.584 543.94C333.179 536.059 333.659 528.177 335.179 520.407C340.818 491.568 355.555 462.283 374.494 439.902Z"/>
	<path fill="#5EBA97" d="M644.713 405.823C647.46 416.162 649.202 426.829 652.763 436.943C660.003 457.506 686.36 502.283 700.478 517.82C698.369 522.647 696.475 527.83 693.818 532.377L693.469 531.71C691.556 534.848 686.329 548.323 683.204 549.044C682.345 549.242 681.479 549.059 680.617 548.967C678.805 548.775 676.952 548.749 675.133 548.728C676.453 543.001 676.135 537.382 675.327 531.599L674.838 532.378C673.348 526.321 673.188 519.918 671.518 513.824C665.262 490.984 651.448 469.84 638.018 450.699C641.298 440.055 643.618 428.429 644.076 417.262C645.048 413.666 644.683 409.535 644.713 405.823Z"/>
	<path fill="#325A61" d="M660.798 607.576C661.302 612.921 660.912 618.573 660.625 623.933Q660.367 628.77 659.89 633.591Q659.414 638.412 658.719 643.206Q658.025 648 657.114 652.758Q656.203 657.516 655.078 662.228Q653.952 666.939 652.615 671.595Q651.277 676.251 649.73 680.842Q648.183 685.432 646.43 689.948Q644.677 694.464 642.721 698.896C638.456 707.284 634.599 716.535 629.189 724.247C624.147 731.433 618.026 738.546 612.223 745.115C609.19 748.549 605.857 751.74 603.147 755.443C602.233 756.064 601.637 756.702 600.451 756.52C598.475 756.215 597.123 754.964 596.089 753.378C596.057 753.33 595.406 752.288 595.334 752.2C595.177 752.007 594.986 751.846 594.811 751.67C596.674 749.076 600.99 744.226 600.814 740.943C601.686 738.268 604.004 735.312 605.466 732.805C608.953 726.826 612.554 720.825 615.571 714.591C628.775 687.316 635.505 660.489 639.704 630.602C647.476 623.589 654.029 615.528 660.798 607.576Z"/>
	<path fill="#B0DEC1" d="M653.409 264.293C666.586 276.072 685.772 304.175 694.83 319.975Q695.9 321.816 696.932 323.679Q697.964 325.541 698.958 327.424Q699.952 329.308 700.907 331.211Q701.862 333.115 702.777 335.037Q703.693 336.96 704.569 338.901Q705.445 340.841 706.281 342.8Q707.117 344.758 707.912 346.734Q708.708 348.709 709.463 350.7Q710.218 352.691 710.931 354.697Q711.645 356.703 712.318 358.724Q712.99 360.744 713.621 362.778Q714.252 364.812 714.841 366.858Q715.431 368.904 715.978 370.962Q716.525 373.02 717.029 375.089Q717.534 377.158 717.996 379.237Q718.458 381.315 718.878 383.403Q719.297 385.491 719.673 387.587Q720.05 389.682 720.383 391.786Q720.716 393.889 721.007 395.998Q721.297 398.108 721.544 400.223Q721.79 402.338 721.994 404.458Q722.197 406.577 722.357 408.701Q722.517 410.824 722.633 412.951Q722.749 415.077 722.822 417.205Q722.894 419.333 722.923 421.462Q722.952 423.592 722.937 425.721Q722.922 427.85 722.864 429.979Q722.805 432.108 722.703 434.234Q722.601 436.361 722.455 438.486Q722.31 440.61 722.12 442.731Q721.931 444.852 721.698 446.969Q721.465 449.086 721.189 451.197C720.075 460.303 718.719 469.652 716.313 478.512C715.752 470.875 714.352 463.227 712.902 455.714C711.864 451.948 711.123 447.708 709.729 444.077C708.238 440.19 706.448 436.706 705.6 432.556C707.318 435.801 711.691 449.682 712.095 450.186L712.829 450.046C712.929 449.867 713.043 449.696 713.127 449.509C713.926 447.728 715.956 436.951 716.099 434.656C716.422 429.473 712.914 409.402 711.109 404.615C709.795 401.133 709.638 397.265 708.111 393.899C703.713 384.204 699.844 374.22 695.332 364.596C691.979 357.446 688.159 350.866 685.235 343.461C679.21 328.203 674.794 312.2 668.335 297.161C664.793 288.912 654.298 272.062 653.409 264.293Z"/>
	<defs>
		<linearGradient id="gradient_3" gradientUnits="userSpaceOnUse" x1="677.00403" y1="723.98584" x2="639.01605" y2="651.55249">
			<stop offset="0" stop-color="#32545D"/>
			<stop offset="1" stop-color="#397170"/>
		</linearGradient>
	</defs>
	<path fill="url(#gradient_3)" d="M642.721 698.896C642.982 698.859 643.25 698.854 643.504 698.785C645.312 698.291 654.933 689.421 657.238 687.531C680.724 668.262 707.06 643.721 723.795 618.187C728.554 610.927 731.956 602.819 736.472 595.41L737.141 595.567C731.81 613.719 723.958 631.699 715.443 648.569C684.876 709.132 648.832 738.587 590.243 770.611L588.069 771.792C586.71 770.474 584.184 773.761 582.632 773.685L583.035 773.542L582.342 771.959L583.46 773.031L586.943 770.711L587.286 771.483L586.561 770.252L587.302 770.419C591.957 766.541 600.306 760.736 603.147 755.443C605.857 751.74 609.19 748.549 612.223 745.115C618.026 738.546 624.147 731.433 629.189 724.247C634.599 716.535 638.456 707.284 642.721 698.896Z"/>
	<defs>
		<linearGradient id="gradient_4" gradientUnits="userSpaceOnUse" x1="574.86969" y1="844.55322" x2="567.75623" y2="785.33252">
			<stop offset="0" stop-color="#AD7451"/>
			<stop offset="1" stop-color="#E9AE6D"/>
		</linearGradient>
	</defs>
	<path fill="url(#gradient_4)" d="M531.366 828.005L546.379 811.135C549.127 808.059 551.877 804.484 555.033 801.84C559.603 798.013 588.21 785.017 595.464 781.49C597.945 783.504 601.78 784.349 604.844 786.711C606.249 786.822 607.652 786.918 609.052 787.083C613.032 787.552 621.996 787.673 625.743 786.497C627.297 786.009 628.11 784.726 629.803 784.512Q612.686 804.531 595.181 824.211C587.869 832.424 580.177 840.474 573.187 848.954C569.693 852.279 562.309 862.155 558.917 864.056C558.891 863.906 558.814 863.757 558.839 863.608C559.095 862.036 575.379 844.904 577.545 842.476C566.889 845.552 530.05 852.207 520.67 847.549C520.392 847.411 520.131 847.237 519.842 847.123C518.618 846.637 518.316 846.886 517.188 847.386C515.666 851.747 516.608 857.156 515.617 861.775C515.588 861.911 515.556 862.046 515.525 862.182C515.383 857.303 515.489 852.379 515.477 847.496C520.511 840.782 526.07 834.508 531.366 828.005Z"/>
	<defs>
		<linearGradient id="gradient_5" gradientUnits="userSpaceOnUse" x1="449.98276" y1="849.89899" x2="451.04382" y2="781.89856">
			<stop offset="0" stop-color="#AC7551"/>
			<stop offset="1" stop-color="#E2AE68"/>
		</linearGradient>
	</defs>
	<path fill="url(#gradient_5)" d="M420.87 778.522C426.415 780.604 431.776 783.107 437.364 785.133C441.644 786.686 455.428 790.647 458.473 792.527C463.851 795.847 470.259 802.935 474.099 808.049C484.971 820.847 496.228 833.707 507.65 846.015C510.617 849.335 510.069 853.123 509.83 857.342C509.675 860.084 509.471 862.805 509.407 865.552C508.163 861.25 509.255 855.842 508.519 851.312C500.742 850.318 493.01 851.252 485.229 850.542C479.966 850.061 474.674 849.489 469.457 848.636C462.345 847.473 455.792 845.923 448.539 846.312C451.276 849.224 460.56 858.088 461.623 861.164C461.719 861.441 461.797 861.725 461.884 862.005C456.788 857.665 452.378 851.795 447.696 846.93C442.783 840.169 436.022 833.837 430.368 827.622C415.648 811.438 400.448 795.625 385.999 779.208C388.456 779.786 389.841 782.263 391.684 783.871C397.53 784.89 412.288 785.352 417.859 783.269C420.168 782.406 422.706 782.542 424.761 781.075C423.566 780.327 422.292 779.782 421.009 779.206L420.87 778.522Z"/>
	<path fill="#816051" d="M515.525 862.182C515.556 862.046 515.588 861.911 515.617 861.775C516.608 857.156 515.666 851.747 517.188 847.386C518.316 846.886 518.618 846.637 519.842 847.123C520.131 847.237 520.392 847.411 520.67 847.549C530.05 852.207 566.889 845.552 577.545 842.476C575.379 844.904 559.095 862.036 558.839 863.608C558.814 863.757 558.891 863.906 558.917 864.056C555.787 868.313 552.013 872.286 548.557 876.301C536.648 890.135 523.479 903.52 512.556 918.099C507.535 914.362 503.207 907.868 498.934 903.187Q485.795 889.03 472.844 874.7C469.179 870.596 465.085 866.473 461.884 862.005C461.797 861.725 461.719 861.441 461.623 861.164C460.56 858.088 451.276 849.224 448.539 846.312C455.792 845.923 462.345 847.473 469.457 848.636C474.674 849.489 479.966 850.061 485.229 850.542C493.01 851.252 500.742 850.318 508.519 851.312C509.255 855.842 508.163 861.25 509.407 865.552C509.471 862.805 509.675 860.084 509.83 857.342C510.069 853.123 510.617 849.335 507.65 846.015C510.547 847.926 511.476 848.289 514.884 847.618L515.477 847.496C515.489 852.379 515.383 857.303 515.525 862.182Z"/>
	<defs>
		<linearGradient id="gradient_6" gradientUnits="userSpaceOnUse" x1="510.8645" y1="886.99182" x2="513.15875" y2="848.91919">
			<stop offset="0" stop-color="#91887E"/>
			<stop offset="1" stop-color="#C8B492"/>
		</linearGradient>
	</defs>
	<path fill="url(#gradient_6)" d="M507.65 846.015C510.547 847.926 511.476 848.289 514.884 847.618L515.477 847.496C515.489 852.379 515.383 857.303 515.525 862.182C514.852 874.892 514.791 887.586 513.657 900.277C513.137 896.45 514.762 891.458 513.598 888.016C512.36 887.121 511.503 887.326 510 887.276C509.986 891.195 510.256 895.356 509.792 899.24C509.559 888.062 509.969 876.696 509.407 865.552C509.471 862.805 509.675 860.084 509.83 857.342C510.069 853.123 510.617 849.335 507.65 846.015Z"/>
	<defs>
		<linearGradient id="gradient_7" gradientUnits="userSpaceOnUse" x1="695.75836" y1="428.70416" x2="651.38763" y2="437.33575">
			<stop offset="0" stop-color="#74CFA8"/>
			<stop offset="1" stop-color="#AED6B4"/>
		</linearGradient>
	</defs>
	<path fill="url(#gradient_7)" d="M629.098 343.545C635.163 350.459 640.797 357.774 646.601 364.908C673.863 398.41 709.27 446.168 706.102 491.635C705.487 500.448 703.427 509.499 700.478 517.82C686.36 502.283 660.003 457.506 652.763 436.943C649.202 426.829 647.46 416.162 644.713 405.823C644.683 409.535 645.048 413.666 644.076 417.262C644.445 389.606 643.253 368.347 629.098 343.545Z"/>
	<defs>
		<linearGradient id="gradient_8" gradientUnits="userSpaceOnUse" x1="501.96381" y1="959.30579" x2="507.6062" y2="885.85907">
			<stop offset="0" stop-color="#B6B79A"/>
			<stop offset="1" stop-color="#E2D5B7"/>
		</linearGradient>
	</defs>
	<path fill="url(#gradient_8)" d="M394.442 837.18C394.656 837.225 394.873 837.262 395.085 837.317C398.149 838.115 443.024 889.234 444.862 889.483C446.047 889.644 453.079 885.847 455.162 885.407C463.018 883.748 472.239 887.775 479.569 890.041C482.154 890.84 484.762 891.112 487.261 892.219C486.384 889.782 482.065 886.314 480.192 884.242L457.341 858.67C454.498 855.477 450.963 852.352 448.456 848.958C447.857 848.146 447.761 847.97 447.696 846.93C452.378 851.795 456.788 857.665 461.884 862.005C465.085 866.473 469.179 870.596 472.844 874.7Q485.795 889.03 498.934 903.187C503.207 907.868 507.535 914.362 512.556 918.099C523.479 903.52 536.648 890.135 548.557 876.301C552.013 872.286 555.787 868.313 558.917 864.056C562.309 862.155 569.693 852.279 573.187 848.954C573.143 849.325 573.215 849.729 573.054 850.066C571.472 853.373 560.266 864.316 556.941 868.023Q548.457 877.589 540.226 887.374C537.972 890.015 533.894 893.374 533.06 896.633L533.604 897.061C533.657 897.034 533.709 897.005 533.763 896.98C535.464 896.189 537.084 895.164 538.788 894.43C542.009 893.044 545.465 892.428 548.661 890.872C552.596 888.957 558.495 890.158 562.415 891.604C565.012 892.562 567.353 893.701 569.397 895.598L569.773 897.224C574.695 891.948 610.139 852.785 611.866 851.919C612.205 851.749 612.622 851.857 613 851.826C609.375 856.77 604.497 861.279 600.268 865.762Q585.925 880.86 571.856 896.214C567.661 900.777 562.756 905.384 559.1 910.382L559.583 911.068C549.561 922.718 539.075 934 528.804 945.431C525.055 949.603 519.764 954.37 516.823 959.046L518.816 959.145L518.536 958.877C523.293 958.665 528.884 957.095 533.483 957.522C537.271 958.243 541.514 956.853 545.448 957.028C545.174 957.111 544.902 957.197 544.628 957.277C538.187 959.14 530.526 958.985 523.865 959.854C519.867 960.375 515.613 961.615 511.623 961.747C507.385 961.887 475.316 958.038 472.565 956.48C475.734 956.854 479.292 957.581 482.462 957.434C482.755 957.421 483.047 957.4 483.339 957.382C486.624 957 500.374 958.918 503.77 959.773C503.939 959.815 504.108 959.862 504.277 959.907C505.264 959.087 505.412 958.303 505.844 957.136C498.474 949.73 491.699 941.588 484.633 933.882C479.174 927.93 473.164 922.245 467.977 916.084L468.376 915.376C464.028 909.259 450.803 897.228 444.853 891.172C433.701 878.642 421.89 866.537 410.364 854.346C405.055 848.731 399.25 843.225 394.442 837.18Z"/>
	<path fill="#848470" d="M559.1 910.382L559.583 911.068C549.561 922.718 539.075 934 528.804 945.431C525.055 949.603 519.764 954.37 516.823 959.046L518.816 959.145L518.536 958.877C523.293 958.665 528.884 957.095 533.483 957.522C537.271 958.243 541.514 956.853 545.448 957.028C545.174 957.111 544.902 957.197 544.628 957.277C538.187 959.14 530.526 958.985 523.865 959.854C519.867 960.375 515.613 961.615 511.623 961.747C507.385 961.887 475.316 958.038 472.565 956.48C475.734 956.854 479.292 957.581 482.462 957.434C482.755 957.421 483.047 957.4 483.339 957.382C486.624 957 500.374 958.918 503.77 959.773C503.939 959.815 504.108 959.862 504.277 959.907C505.264 959.087 505.412 958.303 505.844 957.136C498.474 949.73 491.699 941.588 484.633 933.882C479.174 927.93 473.164 922.245 467.977 916.084L468.376 915.376C473.352 921.725 479.734 927.465 485.247 933.411C491.559 940.219 505.37 957.398 512.174 961.926C518.592 956.721 523.975 949.637 529.479 943.503Q544.443 927.08 559.1 910.382Z"/>
	<defs>
		<linearGradient id="gradient_9" gradientUnits="userSpaceOnUse" x1="322.05161" y1="442.32263" x2="384.40317" y2="446.58145">
			<stop offset="0" stop-color="#85D7A9"/>
			<stop offset="1" stop-color="#C9EDC7"/>
		</linearGradient>
	</defs>
	<path fill="url(#gradient_9)" d="M320.705 471.195C320.711 471.064 320.709 470.933 320.724 470.803C325.236 431.872 359.965 380.292 386.845 352.666C390.164 349.254 393.368 345.5 397.017 342.448C392.453 349.666 388.714 356.94 385.815 364.989C384.533 368.547 383.652 372.246 382.281 375.765L382.127 376.154C380.456 378.161 379.629 380.883 378.703 383.304C373.299 397.433 371.212 414.031 372.641 429.071C372.976 432.59 373.328 436.553 374.494 439.902C355.555 462.283 340.818 491.568 335.179 520.407C333.659 528.177 333.179 536.059 332.584 543.94C330.53 540.836 329.061 537.401 327.834 533.9C317.821 516.166 316.991 490.772 320.705 471.195Z"/>
	<path fill="#5EBA97" d="M320.705 471.195C321.938 475.436 318.973 489.441 318.962 495.046C318.953 499.846 320.914 503.307 321.929 507.787C322.483 510.234 321.83 512.777 322.136 515.241C322.691 519.705 326.456 529.024 328.286 533.456L327.834 533.9C317.821 516.166 316.991 490.772 320.705 471.195Z"/>
	<path fill="#358A77" d="M760.408 519.577C760.834 519.745 761.305 519.826 761.686 520.081C763.704 521.429 789.152 568.885 791.693 574.015C795.561 581.824 799.064 589.779 802.537 597.769C782.427 620.139 761.662 641.917 741.494 664.239L717.925 690.2C709.527 699.618 701.316 709.242 692.256 718.041C693.776 714.381 696.317 710.867 698.363 707.452C706.221 696.002 714.072 684.401 720.852 672.271C747.231 625.076 760.016 573.513 760.408 519.577Z"/>
	<path fill="#B0DEC1" d="M385.322 248.44L386.134 250.025C383.162 253.449 381.077 258.223 378.731 262.142C375.838 266.977 372.567 271.556 369.647 276.325C365.473 283.142 361.744 291.465 358.478 298.764C356.95 302.182 356.499 306.072 354.901 309.45C353.062 313.339 352.25 317.785 350.965 321.908C349.299 327.247 347.052 332.464 345.441 337.765C344.305 341.502 343.831 345.432 342.846 349.21C342.372 351.03 341.321 352.749 341.013 354.588C340.142 359.792 342.282 367.606 339.814 372.122C337.161 376.976 339.548 382.097 339.61 387.256C339.65 390.679 341.65 392.482 340.406 395.976C340.145 396.708 340.299 396.881 340.469 397.62L342.2 397.265L341.91 396.99C342.718 396.271 343.336 395.443 343.714 394.432C343.808 394.181 343.888 393.926 343.979 393.675C344.841 391.298 353.085 378.582 354.875 377.759C351.754 384.186 346.601 389.812 342.935 395.992C330.883 416.305 320.735 437.509 314.49 460.326C311.465 471.963 311.899 483.275 310.662 495.085C306.23 476.474 302.774 457.417 302.182 438.252Q302.094 436.008 302.05 433.762Q302.006 431.516 302.006 429.27Q302.006 427.024 302.05 424.779Q302.095 422.533 302.183 420.289Q302.272 418.044 302.404 415.802Q302.537 413.56 302.713 411.321Q302.89 409.082 303.111 406.847Q303.331 404.612 303.596 402.381Q303.86 400.151 304.168 397.926Q304.477 395.701 304.829 393.483Q305.181 391.265 305.576 389.054Q305.972 386.843 306.411 384.64Q306.85 382.437 307.332 380.243Q307.814 378.05 308.339 375.866Q308.864 373.682 309.432 371.509Q310 369.336 310.611 367.174Q311.221 365.013 311.874 362.864Q312.527 360.715 313.223 358.579Q313.918 356.443 314.655 354.322Q315.392 352.2 316.17 350.093Q316.949 347.986 317.769 345.895Q318.588 343.804 319.449 341.729Q320.31 339.655 321.211 337.598Q322.113 335.54 323.054 333.501Q323.996 331.462 324.978 329.442Q325.959 327.422 326.98 325.421Q328.001 323.421 329.062 321.441Q330.122 319.461 331.221 317.502Q332.32 315.543 333.457 313.606Q334.594 311.669 335.769 309.755Q336.945 307.841 338.157 305.95Q339.37 304.059 340.619 302.193C353.687 282.874 369.378 265.403 385.322 248.44Z"/>
	<path fill="#358A77" d="M265.617 522.901C265.476 535.258 265.571 547.655 266.767 559.966C270.992 603.485 285.185 647.975 309.214 684.592C315.659 694.413 322.619 704.162 330.855 712.583Q331.596 713.34 332.356 714.077L332.242 714.485C332.489 713.774 332.486 714.126 332.271 713.429C331.605 713.616 331.161 713.9 330.463 713.553C328.889 712.769 327.017 710.735 325.64 709.578C309.159 695.739 295.035 679.629 280.525 663.815L235.755 614.933C226.995 605.252 217.335 595.782 209.231 585.575L209.959 585.341C213.832 587.613 217.59 594.097 221.259 597.34L221.739 593.635C221.766 593.422 221.783 593.207 221.81 592.993C222.082 590.844 223.332 589.187 224.167 587.247C226.104 582.752 227.501 578.392 229.782 573.967C235.917 562.064 255.329 530.868 265.617 522.901Z"/>
	<defs>
		<linearGradient id="gradient_10" gradientUnits="userSpaceOnUse" x1="629.47546" y1="422.43851" x2="538.12585" y2="449.53143">
			<stop offset="0" stop-color="#D59483"/>
			<stop offset="1" stop-color="#F8DAA7"/>
		</linearGradient>
	</defs>
	<path fill="url(#gradient_10)" d="M511.706 330.018C517.962 336.036 523.639 342.784 529.477 349.209L560.368 383.303C592.512 418.933 638.798 463.281 655.822 508.085C653.758 511.894 654.396 525.366 655.081 529.952C655.368 531.874 655.044 537.665 654.108 539.207C653.699 538.318 653.661 537.861 652.832 537.302C649.742 531.725 648.018 523.987 643.59 519.384C641.351 507.693 581.518 442.83 570.414 430.486C561.193 420.235 552.258 409.715 542.89 399.598C532.922 388.833 522.366 378.62 512.769 367.514C512.438 366.33 512.299 364.98 512.079 363.764L511.051 366.591C509.173 368.667 502.877 377.407 500.858 378.013C501.775 374.039 507.799 370.091 509.772 366.197C511.082 363.613 510.307 338.019 510.65 332.601C507.184 336.682 501.118 345.196 496.657 347.454C501.343 341.401 506.64 335.757 511.706 330.018Z"/>
	<defs>
		<linearGradient id="gradient_11" gradientUnits="userSpaceOnUse" x1="460.68686" y1="820.41528" x2="449.74075" y2="651.31262">
			<stop offset="0" stop-color="#DAAE71"/>
			<stop offset="1" stop-color="#FFDFBA"/>
		</linearGradient>
	</defs>
	<path fill="url(#gradient_11)" d="M398.789 650.515C405.711 659.888 414.454 668.331 422.454 676.792C441.638 697.083 461.642 716.532 480.845 736.797C490.478 746.963 501.132 756.837 508.033 769.152L508.054 792.939C507.818 799.838 508.456 806.968 507.891 813.807L507.361 816.687C507.096 816.602 506.834 816.505 506.566 816.431C504.235 815.789 501.109 817.795 498.676 817.993C497.435 818.095 496.994 816.76 495.716 816.682L494.046 815.467C493.117 812.79 475.972 792.213 472.762 788.28C446.805 756.481 420.644 723.93 407.426 684.468C403.72 673.403 401.249 661.908 398.789 650.515Z"/>
	<defs>
		<linearGradient id="gradient_12" gradientUnits="userSpaceOnUse" x1="579.5802" y1="814.40503" x2="556.78479" y2="663.0188">
			<stop offset="0" stop-color="#D3A969"/>
			<stop offset="1" stop-color="#FFDFA6"/>
		</linearGradient>
	</defs>
	<path fill="url(#gradient_12)" d="M515.422 796.726C515.466 789.556 514.376 774.481 516.978 768.37C518.95 763.735 522.96 759.199 526.055 755.21C545.515 730.12 568.28 707.618 590.079 684.609C598.582 675.635 606.53 666.149 615.326 657.451Q618.765 654.036 622.261 650.678C619.919 659.743 617.794 668.963 614.997 677.896C599.23 728.256 576.611 760.697 542.699 800.252C539.125 804.422 528.421 819.597 525.107 821.467C524.976 821.542 524.829 821.586 524.69 821.645L524.213 821.43C523.784 822.132 523.416 822.634 522.863 823.263C520.821 822.487 517.573 822.101 516.13 820.567C516.183 818.373 516.183 816.452 515.706 814.291C515.669 814.124 515.627 813.958 515.588 813.791C514.953 808.195 515.934 802.38 515.422 796.726Z"/>
	<defs>
		<linearGradient id="gradient_13" gradientUnits="userSpaceOnUse" x1="362.15576" y1="764.72705" x2="358.31436" y2="638.28906">
			<stop offset="0" stop-color="#32535D"/>
			<stop offset="1" stop-color="#6A9988"/>
		</linearGradient>
	</defs>
	<path fill="url(#gradient_13)" d="M365.195 611.021C371.084 617.143 377.062 623.304 382.488 629.841C382.443 640.269 384.829 651.224 387.267 661.341Q388.578 666.742 390.111 672.085Q391.645 677.427 393.399 682.701Q395.154 687.975 397.125 693.172Q399.097 698.369 401.283 703.479Q403.469 708.589 405.865 713.604Q408.262 718.619 410.864 723.531Q413.467 728.442 416.271 733.241Q419.075 738.04 422.076 742.718C427.095 750.454 432.709 757.778 438.198 765.18C442.75 770.556 446.802 775.46 452.396 779.815C438.488 774.215 424.985 768.068 411.841 760.834Q408.075 758.768 404.379 756.579Q400.684 754.389 397.063 752.079Q393.442 749.768 389.899 747.339Q386.357 744.91 382.897 742.365Q379.436 739.819 376.062 737.161Q372.688 734.503 369.404 731.734Q366.12 728.966 362.929 726.09Q359.739 723.214 356.645 720.234Q353.551 717.254 350.558 714.173Q347.564 711.093 344.675 707.915Q341.785 704.737 339.002 701.465Q336.219 698.193 333.546 694.83Q330.873 691.468 328.313 688.019Q325.753 684.57 323.308 681.038Q320.863 677.506 318.537 673.895Q316.211 670.284 314.005 666.598C310.109 660.042 304.851 652.42 302.71 645.077C302.748 644.04 302.62 643.134 302.291 642.156C301.889 640.959 301.895 641.607 302.306 640.327C308.529 642.297 314.698 644.609 321.227 645.348C329.814 646.321 337.646 644.122 346.065 643.435C351.54 642.988 357.277 643.283 362.773 643.359C363.385 642.848 363.804 642.272 364.295 641.648C364.166 638.654 363.99 635.738 363.561 632.767C364.547 625.725 363.161 617.905 365.195 611.021Z"/>
	<path fill="#325A61" d="M365.195 611.021C371.084 617.143 377.062 623.304 382.488 629.841C382.443 640.269 384.829 651.224 387.267 661.341Q388.578 666.742 390.111 672.085Q391.645 677.427 393.399 682.701Q395.154 687.975 397.125 693.172Q399.097 698.369 401.283 703.479Q403.469 708.589 405.865 713.604Q408.262 718.619 410.864 723.531Q413.467 728.442 416.271 733.241Q419.075 738.04 422.076 742.718C427.095 750.454 432.709 757.778 438.198 765.18L437.933 765.657C438.828 769.61 444.204 772.199 445.404 775.978C443.94 775.09 442.007 774.696 440.414 773.999C434.793 771.541 427.911 768.698 423.049 764.923C419.882 762.463 417.141 758.968 414.362 756.062C386.767 727.204 369.007 680.929 364.295 641.648C364.166 638.654 363.99 635.738 363.561 632.767C364.547 625.725 363.161 617.905 365.195 611.021Z"/>
	<defs>
		<linearGradient id="gradient_14" gradientUnits="userSpaceOnUse" x1="319.14584" y1="630.97943" x2="320.84906" y2="435.80847">
			<stop offset="0" stop-color="#6D9A88"/>
			<stop offset="1" stop-color="#AED7B5"/>
		</linearGradient>
	</defs>
	<path fill="url(#gradient_14)" d="M287.232 426.142Q287.019 429.015 286.873 431.893C286.169 446.071 287.586 460.701 290.019 474.667C299.622 529.787 328.36 570.385 365.195 611.021C363.161 617.905 364.547 625.725 363.561 632.767C363.99 635.738 364.166 638.654 364.295 641.648C363.804 642.272 363.385 642.848 362.773 643.359C357.277 643.283 351.54 642.988 346.065 643.435C337.646 644.122 329.814 646.321 321.227 645.348C314.698 644.609 308.529 642.297 302.306 640.327C301.895 641.607 301.889 640.959 302.291 642.156C302.62 643.134 302.748 644.04 302.71 645.077C298.975 639.459 296.155 631.451 293.804 625.112C288.591 614.007 285.555 600.658 283.058 588.681C274.074 545.582 273.439 503.22 280.347 459.766C282.125 448.585 283.992 437.004 287.232 426.142Z"/>
	<path fill="#879B86" d="M293.804 625.112C296.114 626.439 297.758 626.217 300.173 626.947C309.556 629.784 315.131 631.227 325.183 631.333C330.421 631.388 360.627 627.384 362.905 630.073C363.01 630.989 362.895 632.117 363.561 632.767C363.99 635.738 364.166 638.654 364.295 641.648C363.804 642.272 363.385 642.848 362.773 643.359C357.277 643.283 351.54 642.988 346.065 643.435C337.646 644.122 329.814 646.321 321.227 645.348C314.698 644.609 308.529 642.297 302.306 640.327C301.895 641.607 301.889 640.959 302.291 642.156C302.62 643.134 302.748 644.04 302.71 645.077C298.975 639.459 296.155 631.451 293.804 625.112Z"/>
	<defs>
		<linearGradient id="gradient_15" gradientUnits="userSpaceOnUse" x1="737.97852" y1="617.49896" x2="645.19739" y2="508.20816">
			<stop offset="0" stop-color="#69958A"/>
			<stop offset="1" stop-color="#BBCBAE"/>
		</linearGradient>
	</defs>
	<path fill="url(#gradient_15)" d="M660.798 607.576C697.481 566.342 724.149 525.386 734.099 470.184C736.387 457.49 738.064 444.389 738.016 431.475C738.002 427.778 737.204 424.217 737.018 420.54L736.995 420.027L736.434 420.068L737.62 420.036C738.221 420.943 738.139 420.561 738.216 421.521C738.667 427.143 740.449 432.711 741.748 438.197Q744.489 449.53 746.369 461.037Q747.584 468.142 748.441 475.299Q749.298 482.456 749.796 489.647Q750.294 496.837 750.431 504.044Q750.568 511.251 750.344 518.455Q750.12 525.66 749.535 532.844Q748.951 540.029 748.007 547.175Q747.063 554.321 745.763 561.41Q744.463 568.5 742.809 575.516C741.204 582.146 739.755 589.25 737.141 595.567L736.472 595.41C731.956 602.819 728.554 610.927 723.795 618.187C707.06 643.721 680.724 668.262 657.238 687.531C654.933 689.421 645.312 698.291 643.504 698.785C643.25 698.854 642.982 698.859 642.721 698.896Q644.677 694.464 646.43 689.948Q648.183 685.432 649.73 680.842Q651.277 676.251 652.615 671.595Q653.952 666.939 655.078 662.228Q656.203 657.516 657.114 652.758Q658.025 648 658.719 643.206Q659.414 638.412 659.89 633.591Q660.367 628.77 660.625 623.933C660.912 618.573 661.302 612.921 660.798 607.576Z"/>
	<defs>
		<linearGradient id="gradient_16" gradientUnits="userSpaceOnUse" x1="655.42468" y1="507.21719" x2="488.21817" y2="415.68216">
			<stop offset="0" stop-color="#E9BC9B"/>
			<stop offset="1" stop-color="#FFF2D2"/>
		</linearGradient>
	</defs>
	<path fill="url(#gradient_16)" d="M512.769 367.514C522.366 378.62 532.922 388.833 542.89 399.598C552.258 409.715 561.193 420.235 570.414 430.486C581.518 442.83 641.351 507.693 643.59 519.384C648.018 523.987 649.742 531.725 652.832 537.302C654.752 542.863 656.45 548.398 657.655 554.168C658.551 558.457 658.986 566.776 660.755 570.404C657.735 582.404 651.818 593.13 644.245 602.826C642.339 605.257 638.387 611.386 635.488 612.172L635.086 610.401C635.482 599.981 622.647 567.951 617.68 558.123C614.974 552.768 611.526 547.847 608.776 542.525C603.444 536.469 598.071 526.423 593.339 519.489C588.335 512.158 582.521 505.284 577.141 498.221C573.782 495.787 570.032 490.131 567.084 486.84C551.929 469.924 536.851 453.05 522.843 435.157C519.61 431.028 515.96 427.16 512.993 422.839C513.467 414.386 512.878 405.648 512.764 397.171C512.63 387.284 512.879 377.4 512.769 367.514Z"/>
	<path fill="#F6C7A1" d="M577.141 498.221C581.1 499.844 587.137 510.017 590.001 513.756C591.053 510.714 592.152 507.831 593.599 504.951C592.422 503.534 590.92 502.095 590.475 500.27C594.288 503.685 612.415 526.975 614.422 531.435C614.302 531.335 614.18 531.237 614.063 531.134C608.203 525.985 604.757 517.809 599.165 512.173C598.559 511.562 597.963 510.944 597.35 510.339L596.412 510.404C595.312 512.919 595.129 515.853 593.625 518.134C597.158 523.481 607.777 537.207 608.776 542.525C603.444 536.469 598.071 526.423 593.339 519.489C588.335 512.158 582.521 505.284 577.141 498.221Z"/>
	<path fill="#D48B7B" d="M593.625 518.134C595.129 515.853 595.312 512.919 596.412 510.404L597.35 510.339C597.963 510.944 598.559 511.562 599.165 512.173C604.757 517.809 608.203 525.985 614.063 531.134C614.18 531.237 614.302 531.335 614.422 531.435C618.583 537.936 622.985 544.34 626.948 550.96C633.74 563.637 644.993 588.774 644.245 602.826C642.339 605.257 638.387 611.386 635.488 612.172L635.086 610.401C635.482 599.981 622.647 567.951 617.68 558.123C614.974 552.768 611.526 547.847 608.776 542.525C607.777 537.207 597.158 523.481 593.625 518.134Z"/>
	<defs>
		<linearGradient id="gradient_17" gradientUnits="userSpaceOnUse" x1="662.71918" y1="573.17963" x2="628.70605" y2="551.09644">
			<stop offset="0" stop-color="#D69082"/>
			<stop offset="1" stop-color="#E3AF96"/>
		</linearGradient>
	</defs>
	<path fill="url(#gradient_17)" d="M643.59 519.384C648.018 523.987 649.742 531.725 652.832 537.302C654.752 542.863 656.45 548.398 657.655 554.168C658.551 558.457 658.986 566.776 660.755 570.404C657.735 582.404 651.818 593.13 644.245 602.826C644.993 588.774 633.74 563.637 626.948 550.96L627.761 550.975L628.669 552.529C629.589 552.055 629.523 551.506 629.878 550.571L630.733 550.77L630.109 550.22C631.396 548.986 633.046 547.405 633.669 545.719C636.36 538.442 642.418 533.364 644.819 527.451C646.054 524.41 644.843 522.173 643.59 519.384Z"/>
	<defs>
		<linearGradient id="gradient_18" gradientUnits="userSpaceOnUse" x1="805.59729" y1="415.14822" x2="751.10223" y2="447.83612">
			<stop offset="0" stop-color="#318777"/>
			<stop offset="1" stop-color="#79C09B"/>
		</linearGradient>
	</defs>
	<path fill="url(#gradient_18)" d="M752.761 452.541C750.764 444.512 749.02 436.371 746.722 428.426C743.418 416.996 739.392 405.743 735.649 394.448C727.237 369.064 718.231 344.603 705.126 321.152C702.222 315.957 698.646 309.042 694.573 304.769L695.292 304.863L694.464 304.05C699.818 307.139 722.188 334.725 728.171 341.51L795.348 417.671C808.725 432.93 821.827 448.736 835.718 463.517C836.459 469.264 841.768 476.209 844.335 481.495C847.32 487.64 850.175 494.105 852.337 500.593C854.345 506.617 856.173 513.652 856.432 520.024C856.646 525.283 856.243 530.402 856.689 535.7C855.879 536.65 855.453 537.081 855.003 538.262L853.394 539.622L853.716 540.083L854.29 540.142C850.555 544.863 837.742 560.345 833.923 563.235C829.85 568.416 825.191 573.148 820.755 578.018C814.726 584.636 808.788 591.359 802.537 597.769C799.064 589.779 795.561 581.824 791.693 574.015C789.152 568.885 763.704 521.429 761.686 520.081C761.305 519.826 760.834 519.745 760.408 519.577C759.386 514.767 760.341 504.53 759.878 498.706C758.638 483.135 755.999 467.805 752.761 452.541Z"/>
	<defs>
		<linearGradient id="gradient_19" gradientUnits="userSpaceOnUse" x1="799.15558" y1="514.0415" x2="765.73383" y2="533.79547">
			<stop offset="0" stop-color="#42957F"/>
			<stop offset="1" stop-color="#76AB92"/>
		</linearGradient>
	</defs>
	<path fill="url(#gradient_19)" d="M752.761 452.541C773.555 474.768 794.584 507.487 811.244 533.335C815.599 540.092 826.588 560.279 831.312 564.724L831.668 564.447C832.507 563.803 832.859 563.479 833.923 563.235C829.85 568.416 825.191 573.148 820.755 578.018C814.726 584.636 808.788 591.359 802.537 597.769C799.064 589.779 795.561 581.824 791.693 574.015C789.152 568.885 763.704 521.429 761.686 520.081C761.305 519.826 760.834 519.745 760.408 519.577C759.386 514.767 760.341 504.53 759.878 498.706C758.638 483.135 755.999 467.805 752.761 452.541Z"/>
	<path fill="#B9B99E" d="M496.657 347.454C501.118 345.196 507.184 336.682 510.65 332.601C510.307 338.019 511.082 363.613 509.772 366.197C507.799 370.091 501.775 374.039 500.858 378.013C502.877 377.407 509.173 368.667 511.051 366.591L512.079 363.764C512.299 364.98 512.438 366.33 512.769 367.514C512.879 377.4 512.63 387.284 512.764 397.171C512.878 405.648 513.467 414.386 512.993 422.839L511.54 422.78C504.16 430.661 497.738 439.362 490.74 447.588L454.988 488.885C449.587 495.219 444.788 502.621 438.879 508.44C418.826 536.163 408.532 549.647 396.581 582.247C393.483 590.698 389.924 601.893 389.968 611.009C389.49 611.799 389.193 612.407 388.462 612.988C373.196 595.592 362.85 578.459 360.077 555.055C356.241 522.685 368.276 499.311 387.699 474.898C392.659 467.94 398.512 461.446 403.989 454.883C415.355 441.261 426.961 427.888 438.477 414.399L472.679 374.661C480.482 365.566 488.212 355.944 496.657 347.454Z"/>
	<path fill="#B0DEC1" d="M387.699 474.898L388.123 475.594L387.526 476.331C368.452 500.106 357.189 523.83 360.774 555.147C362.839 573.188 370.177 589.664 381.673 603.661C383.283 605.621 385.362 608.871 387.313 610.356C387.748 610.688 387.945 610.703 388.412 610.829C390.048 608.78 389.783 604.231 390.381 601.5C391.191 597.802 396.195 581.36 396.043 579.652C395.763 576.524 392.499 573.402 390.339 571.334C389.725 573.404 389.098 575.368 388.163 577.322L387.881 577.171C388.401 574.039 389.305 571.145 390.029 568.069C382.964 557.06 380.916 541.227 383.724 528.536C384.419 525.397 385.659 518.021 388.294 516.17L387.821 516.872L388.077 517.349C382.693 535.28 381.719 548.86 390.375 566.239C393.093 560.371 395.839 554.538 398.855 548.816C400.641 545.427 402.821 542.067 404.365 538.584C411.806 530.116 417.191 517.306 425.664 509.87L426.313 510.693L425.84 510.538L425.86 510.179L425.411 511.037C425.957 513.14 428.98 516.077 430.505 517.652C432.716 516.635 436.538 510.42 438.201 508.231L438.879 508.44C418.826 536.163 408.532 549.647 396.581 582.247C393.483 590.698 389.924 601.893 389.968 611.009C389.49 611.799 389.193 612.407 388.462 612.988C373.196 595.592 362.85 578.459 360.077 555.055C356.241 522.685 368.276 499.311 387.699 474.898Z"/>
	<path fill="#E3D3B4" d="M511.051 366.591L512.079 363.764C512.299 364.98 512.438 366.33 512.769 367.514C512.879 377.4 512.63 387.284 512.764 397.171C512.878 405.648 513.467 414.386 512.993 422.839L511.54 422.78C504.16 430.661 497.738 439.362 490.74 447.588L454.988 488.885C449.587 495.219 444.788 502.621 438.879 508.44L438.201 508.231C436.538 510.42 432.716 516.635 430.505 517.652C428.98 516.077 425.957 513.14 425.411 511.037L425.86 510.179L425.84 510.538L426.313 510.693L425.664 509.87C417.191 517.306 411.806 530.116 404.365 538.584C397.483 543.91 395.562 556.456 390.562 563.491L390.024 563.454C386.648 555.862 384.035 545.823 384.596 537.447C385.445 524.792 390.834 511.44 397.358 500.631C403.23 490.901 411.536 482.07 418.758 473.312C435.773 452.675 453.261 432.578 470.786 412.374Q479.962 401.821 488.995 391.146C492.747 386.753 496.521 381.841 500.858 378.013C502.877 377.407 509.173 368.667 511.051 366.591Z"/>
	<path fill="#F0EEDA" d="M511.051 366.591L512.079 363.764C512.299 364.98 512.438 366.33 512.769 367.514C512.879 377.4 512.63 387.284 512.764 397.171C512.878 405.648 513.467 414.386 512.993 422.839L511.54 422.78C510.299 414.268 510.79 405.471 510.814 396.885C510.843 386.8 510.686 376.668 511.051 366.591Z"/>
	<defs>
		<linearGradient id="gradient_20" gradientUnits="userSpaceOnUse" x1="209.9733" y1="410.54385" x2="272.33325" y2="450.47964">
			<stop offset="0" stop-color="#308974"/>
			<stop offset="1" stop-color="#71B193"/>
		</linearGradient>
	</defs>
	<path fill="url(#gradient_20)" d="M143.408 512.517L249.625 392.64Q273.621 364.793 298.124 337.392C307.769 326.537 317.13 315.641 327.457 305.412C298.931 349.945 284.282 401.199 272.803 452.38C267.894 475.796 266.16 499.031 265.617 522.901C255.329 530.868 235.917 562.064 229.782 573.967C227.501 578.392 226.104 582.752 224.167 587.247C223.332 589.187 222.082 590.844 221.81 592.993C221.783 593.207 221.766 593.422 221.739 593.635L221.259 597.34C217.59 594.097 213.832 587.613 209.959 585.341L209.231 585.575C200.766 577.131 192.143 568.097 184.71 558.74C180.624 555.906 175.632 548.909 172.154 544.965Q157.876 528.656 143.408 512.517Z"/>
	<defs>
		<linearGradient id="gradient_21" gradientUnits="userSpaceOnUse" x1="219.48914" y1="512.96216" x2="259.73627" y2="532.37585">
			<stop offset="0" stop-color="#3A937B"/>
			<stop offset="1" stop-color="#57B295"/>
		</linearGradient>
	</defs>
	<path fill="url(#gradient_21)" d="M194.252 567.982C194.376 567.482 194.512 566.984 194.657 566.49C197.258 557.652 201.475 548.8 205.638 540.585C219.513 513.202 237.021 489.221 257.914 466.769C262.032 462.344 267.465 455.215 272.803 452.38C267.894 475.796 266.16 499.031 265.617 522.901C255.329 530.868 235.917 562.064 229.782 573.967C227.501 578.392 226.104 582.752 224.167 587.247C223.332 589.187 222.082 590.844 221.81 592.993C221.783 593.207 221.766 593.422 221.739 593.635L221.259 597.34C217.59 594.097 213.832 587.613 209.959 585.341L209.231 585.575C200.766 577.131 192.143 568.097 184.71 558.74C187.629 559.45 192.119 565.705 194.252 567.982Z"/>
	<defs>
		<linearGradient id="gradient_22" gradientUnits="userSpaceOnUse" x1="441.31232" y1="672.42084" x2="552.70056" y2="474.85684">
			<stop offset="0" stop-color="#EDC380"/>
			<stop offset="1" stop-color="#FAF0E5"/>
		</linearGradient>
	</defs>
	<path fill="url(#gradient_22)" d="M511.54 422.78L512.993 422.839C515.96 427.16 519.61 431.028 522.843 435.157C536.851 453.05 551.929 469.924 567.084 486.84C570.032 490.131 573.782 495.787 577.141 498.221C582.521 505.284 588.335 512.158 593.339 519.489C598.071 526.423 603.444 536.469 608.776 542.525C611.526 547.847 614.974 552.768 617.68 558.123C622.647 567.951 635.482 599.981 635.086 610.401L635.488 612.172C635.383 613.835 634.145 614.959 633.105 616.16C626.927 623.3 620.376 630.104 614.021 637.084L562.717 693.412L530.648 728.527C525.081 734.659 519.714 741.813 513.444 747.175C513.154 747.423 512.843 747.645 512.537 747.874L511.822 748.501C508.654 747.203 447.249 678.842 440.169 670.706C437.425 668.558 434.94 665.139 432.593 662.531Q423.92 652.942 415.361 643.253C410.053 637.243 404.798 631.18 399.416 625.236C395.746 621.182 391.835 617.295 388.462 612.988C389.193 612.407 389.49 611.799 389.968 611.009C389.924 601.893 393.483 590.698 396.581 582.247C408.532 549.647 418.826 536.163 438.879 508.44C444.788 502.621 449.587 495.219 454.988 488.885L490.74 447.588C497.738 439.362 504.16 430.661 511.54 422.78Z"/>
	<defs>
		<linearGradient id="gradient_23" gradientUnits="userSpaceOnUse" x1="478.67999" y1="746.52057" x2="479.72137" y2="675.23297">
			<stop offset="0" stop-color="#DB7A46"/>
			<stop offset="1" stop-color="#EBBA78"/>
		</linearGradient>
	</defs>
	<path fill="url(#gradient_23)" d="M512.254 662.004C509.56 659.388 506.969 656.827 504.671 653.85C507.841 656.341 510.65 659.262 513.245 662.338C512.635 667.131 513.292 672.671 513.326 677.562L513.522 713.848C513.572 724.404 514.808 736.706 512.057 746.91L512.537 747.874L511.822 748.501C508.654 747.203 447.249 678.842 440.169 670.706C441.016 670.932 441.594 671.402 442.248 671.969C455.851 683.766 468.479 680.477 484.414 677.186C489.07 676.224 493.808 675.292 498.577 675.973C503.376 676.659 508.171 679.034 512.255 681.588L512.254 662.004Z"/>
	<path fill="#F0EEDA" d="M511.54 422.78L512.993 422.839C515.96 427.16 519.61 431.028 522.843 435.157C536.851 453.05 551.929 469.924 567.084 486.84C570.032 490.131 573.782 495.787 577.141 498.221C582.521 505.284 588.335 512.158 593.339 519.489C598.071 526.423 603.444 536.469 608.776 542.525C611.526 547.847 614.974 552.768 617.68 558.123C622.647 567.951 635.482 599.981 635.086 610.401C630.484 597.839 625.364 586.206 618.406 574.742C607.961 557.698 596.037 540.88 582.974 525.742C575.758 517.38 567.775 509.636 560.37 501.43C553.088 493.362 546.201 484.946 538.929 476.871C529.963 466.914 520.486 457.636 512.222 447.046L512.39 471.179L511.766 471.559L511.516 474.911C511.05 474.486 511.167 472.963 511.138 472.289C510.783 464.095 511.327 455.856 511.116 447.658C477.385 486.414 441.459 523.703 412.925 566.592C406.626 576.058 401.378 586.293 396.559 596.578C394.417 601.151 392.713 606.846 389.968 611.009C389.924 601.893 393.483 590.698 396.581 582.247C408.532 549.647 418.826 536.163 438.879 508.44C444.788 502.621 449.587 495.219 454.988 488.885L490.74 447.588C497.738 439.362 504.16 430.661 511.54 422.78Z"/>
	<defs>
		<linearGradient id="gradient_24" gradientUnits="userSpaceOnUse" x1="588.72369" y1="715.13977" x2="544.44818" y2="603.60114">
			<stop offset="0" stop-color="#C64741"/>
			<stop offset="1" stop-color="#EEAD83"/>
		</linearGradient>
	</defs>
	<path fill="url(#gradient_24)" d="M551.569 622.245C551.685 622.246 551.8 622.244 551.916 622.247C566.893 622.691 589.174 610.048 601.562 601.972C615.181 593.095 613.87 589.69 616.829 575.406L618.406 574.742C625.364 586.206 630.484 597.839 635.086 610.401L635.488 612.172C635.383 613.835 634.145 614.959 633.105 616.16C626.927 623.3 620.376 630.104 614.021 637.084L562.717 693.412L530.648 728.527C525.081 734.659 519.714 741.813 513.444 747.175C513.154 747.423 512.843 747.645 512.537 747.874L512.057 746.91C514.808 736.706 513.572 724.404 513.522 713.848L513.326 677.562C513.292 672.671 512.635 667.131 513.245 662.338C516.948 658.76 520.34 654.605 523.913 650.856C536.763 637.373 549.243 623.554 562.297 610.265L562.53 610.681C561.751 612.992 553.709 620.111 551.569 622.245Z"/>
	<defs>
		<linearGradient id="gradient_25" gradientUnits="userSpaceOnUse" x1="613.21655" y1="590.19904" x2="479.25858" y2="500.24982">
			<stop offset="0" stop-color="#E7A98A"/>
			<stop offset="1" stop-color="#FAE3C3"/>
		</linearGradient>
	</defs>
	<path fill="url(#gradient_25)" d="M512.222 447.046C520.486 457.636 529.963 466.914 538.929 476.871C546.201 484.946 553.088 493.362 560.37 501.43C567.775 509.636 575.758 517.38 582.974 525.742C596.037 540.88 607.961 557.698 618.406 574.742L616.829 575.406C613.87 589.69 615.181 593.095 601.562 601.972C589.174 610.048 566.893 622.691 551.916 622.247C551.8 622.244 551.685 622.246 551.569 622.245C553.709 620.111 561.751 612.992 562.53 610.681L562.297 610.265C564.499 606.356 569.002 603.033 571.72 599.263C558.255 583.723 544.101 568.891 530.301 553.658C524.443 547.192 518.076 540.842 512.833 533.873C513.647 513.18 512.974 491.9 512.39 471.179L512.222 447.046Z"/>
	<path fill="#B9B99E" d="M483.339 957.382C482.728 956.76 482.267 956.795 481.441 956.64C473.393 955.131 465.175 954.535 457.083 953.342Q432.757 949.791 408.794 944.298C346.569 930.028 280.268 894.874 230.932 854.725Q227.571 852.025 224.265 849.259Q220.958 846.494 217.707 843.663Q214.456 840.832 211.262 837.938Q208.068 835.043 204.932 832.085Q201.796 829.128 198.719 826.109Q195.642 823.09 192.625 820.01Q189.609 816.931 186.654 813.792Q183.699 810.654 180.807 807.457Q177.915 804.261 175.087 801.007Q172.259 797.754 169.496 794.445Q166.733 791.136 164.036 787.774Q161.339 784.411 158.709 780.995Q156.08 777.579 153.518 774.112Q150.957 770.645 148.465 767.128Q145.972 763.61 143.55 760.045Q141.128 756.479 138.777 752.865Q136.427 749.252 134.148 745.593Q131.869 741.934 129.663 738.23Q127.458 734.526 125.326 730.78Q123.194 727.033 121.137 723.245Q119.08 719.457 117.098 715.629Q115.116 711.801 113.211 707.934Q111.305 704.067 109.477 700.163Q107.649 696.26 105.898 692.32Q104.148 688.381 102.475 684.408Q100.803 680.435 99.2102 676.429Q97.6171 672.424 96.1038 668.387Q94.5904 664.351 93.1574 660.286Q91.7244 656.22 90.3723 652.127Q89.0202 648.034 87.7494 643.914Q86.4787 639.795 85.2899 635.652Q84.1011 631.508 82.9947 627.342C76.2429 601.58 72.3117 575.881 69.6121 549.442Q69.0844 544.047 68.6897 538.641Q68.2951 533.235 68.0338 527.821Q67.7725 522.407 67.6447 516.988Q67.5169 511.569 67.5227 506.149Q67.5285 500.729 67.6678 495.31Q67.8071 489.891 68.0799 484.478Q68.3528 479.064 68.7589 473.659Q69.165 468.254 69.7042 462.861Q70.2434 457.467 70.9154 452.089Q71.5873 446.71 72.3916 441.35Q73.1959 435.989 74.132 430.65Q75.0682 425.311 76.1356 419.997Q77.203 414.683 78.401 409.397Q79.599 404.11 80.927 398.855Q82.2549 393.6 83.7119 388.379Q85.169 383.158 86.7542 377.975Q88.3395 372.791 90.052 367.648Q91.7645 362.506 93.6032 357.407Q95.4418 352.308 97.4056 347.256Q99.3694 342.203 101.457 337.201Q103.545 332.199 105.755 327.25Q107.965 322.301 110.297 317.407Q112.629 312.514 115.08 307.68Q117.532 302.845 120.101 298.073Q122.671 293.3 125.358 288.593Q128.045 283.885 130.847 279.245Q133.648 274.605 136.564 270.035Q139.479 265.466 142.506 260.969Q145.533 256.473 148.67 252.053Q151.807 247.632 155.052 243.29Q158.297 238.949 161.648 234.688Q164.999 230.428 168.454 226.251C176.807 216.028 186.108 206.563 195.415 197.219Q198.331 194.299 201.3 191.432Q204.269 188.566 207.29 185.754Q210.312 182.943 213.384 180.187Q216.456 177.432 219.579 174.733Q222.701 172.034 225.873 169.394Q229.044 166.753 232.263 164.17Q235.483 161.588 238.749 159.066Q242.015 156.543 245.327 154.081Q248.639 151.618 251.996 149.217Q255.353 146.816 258.753 144.477Q262.153 142.138 265.595 139.862Q269.038 137.586 272.522 135.373Q276.005 133.161 279.529 131.012Q283.053 128.864 286.616 126.781Q290.178 124.697 293.778 122.68Q297.379 120.662 301.015 118.711Q304.652 116.76 308.324 114.876Q311.996 112.992 315.702 111.176Q319.408 109.36 323.146 107.612Q326.885 105.864 330.655 104.185Q334.425 102.506 338.225 100.897Q342.025 99.2872 345.854 97.7478Q349.684 96.2084 353.54 94.7395Q357.397 93.2706 361.28 91.8728Q365.163 90.4749 369.071 89.1486Q372.979 87.8223 376.911 86.568Q380.843 85.3136 384.797 84.1317Q388.751 82.9497 392.726 81.8406Q396.702 80.7314 400.696 79.6954Q404.691 78.6594 408.705 77.697Q412.718 76.7345 416.748 75.8458Q420.778 74.9572 424.824 74.1427Q446.322 69.6588 468.12 66.9917C476.537 66.0403 485.05 65.6498 493.492 64.8033L493.57 64.2658L493.965 64.7505L497.434 64.1883L497.291 64.5982C496.224 65.4978 495.328 66.3218 494.436 67.4068L494.87 68.1116C482.834 82.7657 469.495 96.6734 456.939 110.903C452.843 115.544 447.526 120.404 444.122 125.499C438.938 131.246 433.529 136.831 428.425 142.641C410.368 164.319 391.122 185.096 372.126 205.951C354.853 224.915 338.117 244.353 320.703 263.203C311.074 273.626 300.786 283.506 291.049 293.853Q268.576 318.02 246.853 342.864L174.861 425.505C167.982 433.429 157.393 448.424 149.74 454.565C149.751 452.716 150.017 450.488 149.319 448.757C148.897 450.629 148.945 452.34 149 454.25C140.175 463.261 131.899 472.844 123.647 482.375C118.387 488.45 113.261 494.981 107.245 500.332Q107.121 490.697 108.051 481.106C107.688 478.971 107.524 476.896 107.431 474.734C106.798 479.272 106.111 483.91 105.989 488.491C105.912 491.367 106.946 499.539 106.021 501.706C104.925 504.27 101.439 506.194 99.8306 508.561C98.7139 510.204 99.2588 511.474 100.325 512.918C101.834 514.962 104.594 517.101 105.318 519.54C106.558 523.713 105.481 529.503 105.647 533.887C105.755 536.766 106.471 539.62 106.75 542.495C107.416 549.344 108.452 556.325 108.9 563.174C108.989 564.541 108.742 565.945 108.839 567.284C108.914 568.319 109.062 568.316 109.923 568.918L110.341 568.485C109.995 566.334 109.348 563.805 109.746 561.641C109.746 561.497 109.749 561.353 109.748 561.209C109.712 553.771 105.782 534.031 107.342 528.774C110.135 530.187 110.736 533.94 113.486 535.44C114.253 537.192 115.742 539.363 116.04 541.195C116.641 544.886 124.691 550.771 127.839 552.997C128.985 553.807 129.405 554.074 130.835 553.744C131.303 553.636 132.056 553.301 132.518 553.108C137.138 556.521 148.309 572.804 152.488 573.28C158.742 578.581 163.524 586.576 168.993 592.751L212.936 641.411C229.107 659.096 244.738 677.249 260.864 694.963Q326.582 767.077 394.442 837.18C399.25 843.225 405.055 848.731 410.364 854.346C421.89 866.537 433.701 878.642 444.853 891.172C450.803 897.228 464.028 909.259 468.376 915.376L467.977 916.084C473.164 922.245 479.174 927.93 484.633 933.882C491.699 941.588 498.474 949.73 505.844 957.136C505.412 958.303 505.264 959.087 504.277 959.907C504.108 959.862 503.939 959.815 503.77 959.773C500.374 958.918 486.624 957 483.339 957.382Z"/>
	<defs>
		<linearGradient id="gradient_26" gradientUnits="userSpaceOnUse" x1="339.32504" y1="689.42743" x2="193.04466" y2="771.0766">
			<stop offset="0" stop-color="#EBB285"/>
			<stop offset="1" stop-color="#D1CDB4"/>
		</linearGradient>
	</defs>
	<path fill="url(#gradient_26)" d="M109.746 561.641C109.746 561.497 109.749 561.353 109.748 561.209C109.712 553.771 105.782 534.031 107.342 528.774C110.135 530.187 110.736 533.94 113.486 535.44C114.253 537.192 115.742 539.363 116.04 541.195C116.641 544.886 124.691 550.771 127.839 552.997C128.985 553.807 129.405 554.074 130.835 553.744C131.303 553.636 132.056 553.301 132.518 553.108C137.138 556.521 148.309 572.804 152.488 573.28C158.742 578.581 163.524 586.576 168.993 592.751L212.936 641.411C229.107 659.096 244.738 677.249 260.864 694.963Q326.582 767.077 394.442 837.18C399.25 843.225 405.055 848.731 410.364 854.346C421.89 866.537 433.701 878.642 444.853 891.172L444.409 891.676C449.554 898.778 457.228 905.126 463.553 911.254C449.388 911.431 436.6 908.496 422.881 905.437C397.849 899.856 375.469 893.407 351.832 883.303Q346.982 881.22 342.187 879.012Q337.393 876.805 332.657 874.473Q327.922 872.142 323.248 869.689Q318.575 867.235 313.966 864.662Q309.358 862.088 304.818 859.396Q300.278 856.703 295.809 853.894Q291.34 851.085 286.946 848.161Q282.552 845.237 278.234 842.2Q273.917 839.162 269.681 836.014Q265.444 832.866 261.29 829.61Q257.136 826.353 253.068 822.989Q249 819.626 245.021 816.158Q241.041 812.69 237.153 809.121Q233.265 805.551 229.471 801.881Q225.676 798.212 221.979 794.445Q218.281 790.679 214.682 786.818Q211.083 782.956 207.585 779.003Q204.088 775.05 200.694 771.007Q197.3 766.965 194.012 762.836Q190.724 758.706 187.545 754.493Q184.365 750.28 181.295 745.986Q178.226 741.692 175.269 737.319Q172.312 732.947 169.469 728.5Q166.626 724.052 163.9 719.532Q161.174 715.013 158.565 710.424Q155.957 705.835 153.469 701.18Q150.98 696.525 148.614 691.807Q146.247 687.089 144.003 682.311Q141.759 677.534 139.64 672.699Q137.521 667.865 135.528 662.977Q133.535 658.09 131.67 653.152Q129.804 648.214 128.067 643.23C124.553 632.881 121.218 622.1 118.901 611.417C116.35 599.653 114.605 587.715 111.859 576.012C110.848 571.701 111.848 566.053 109.972 562.032C109.908 561.895 109.821 561.771 109.746 561.641Z"/>
	<path fill="#F6C7A1" d="M165.974 628.232L166.271 628.384C167.303 630.551 169.905 632.896 171.693 634.489C174.851 637.304 178.734 639.415 182.081 642.031C187.372 646.167 192.411 651.145 197.996 654.844C205.675 659.93 214.368 663.907 221.059 670.371C232.954 681.862 243.197 694.54 253.061 707.794C255.188 710.653 261.197 720.91 262.642 722.259C263.406 722.972 264.867 722.756 265.473 723.785C268.152 728.328 269.707 734.355 271.929 739.226C273.267 742.16 274.563 745.152 276.07 748.003C276.919 749.608 278.245 751.152 278.948 752.795C279.949 755.133 279.373 758.31 280.519 760.527C281.432 762.292 283.383 763.217 284.198 765.005C285.807 768.535 282.786 772.268 282.017 775.667C281.523 777.85 283.512 777.038 284.422 778.656C284.38 780.006 284.376 780.794 283.564 781.921C282.747 783.056 282.961 782.344 282.929 783.749C283.714 784.744 285.003 786.054 285.198 787.331C285.496 789.289 286.664 794.152 285.864 795.825C285.763 796.037 285.643 796.24 285.532 796.447C289.262 802.397 321.974 823.674 329.524 827.591C331.512 828.718 333.323 829.914 335.136 831.305L332.095 829.772C311.133 819.077 292.237 803.917 274.687 788.392C264.783 779.631 254.894 771.019 245.732 761.457Q242.361 757.911 239.09 754.274Q235.818 750.636 232.648 746.91Q229.478 743.184 226.412 739.372Q223.346 735.56 220.386 731.664Q217.426 727.769 214.575 723.794Q211.723 719.818 208.983 715.766Q206.242 711.713 203.615 707.586Q200.987 703.46 198.474 699.262Q195.961 695.065 193.565 690.799Q191.169 686.534 188.891 682.205Q186.613 677.875 184.456 673.484Q182.298 669.093 180.263 664.644Q178.227 660.196 176.315 655.693Q174.403 651.189 172.616 646.635Q170.829 642.081 169.168 637.479Q167.507 632.878 165.974 628.232Z"/>
	<path fill="#E3D3B4" d="M108.051 481.106C109.1 461.903 112.635 442.425 116.666 423.642Q117.886 417.808 119.278 412.013Q120.671 406.218 122.236 400.468Q123.801 394.717 125.537 389.015Q127.272 383.314 129.177 377.666Q131.082 372.019 133.154 366.431Q135.226 360.843 137.463 355.319Q139.701 349.795 142.102 344.34Q144.504 338.885 147.066 333.505Q149.629 328.124 152.351 322.822Q155.073 317.52 157.952 312.301Q160.83 307.083 163.863 301.952Q166.896 296.822 170.081 291.784Q173.265 286.746 176.598 281.805Q179.931 276.865 183.41 272.025Q186.889 267.186 190.511 262.453Q194.132 257.719 197.893 253.096C209.71 238.762 222.847 225.422 236.254 212.578C286.984 163.978 355.442 128.623 423.808 113.25C435.282 110.67 447.706 106.994 459.528 107.245C448.252 117.937 439.195 131.104 427.848 141.802L428.425 142.641C410.368 164.319 391.122 185.096 372.126 205.951C354.853 224.915 338.117 244.353 320.703 263.203C311.074 273.626 300.786 283.506 291.049 293.853Q268.576 318.02 246.853 342.864L174.861 425.505C167.982 433.429 157.393 448.424 149.74 454.565C149.751 452.716 150.017 450.488 149.319 448.757C148.897 450.629 148.945 452.34 149 454.25C140.175 463.261 131.899 472.844 123.647 482.375C118.387 488.45 113.261 494.981 107.245 500.332Q107.121 490.697 108.051 481.106Z"/>
</svg>
